<?xml version="1.0" encoding="utf-8"?>
<!-- Generator: Adobe Illustrator 16.0.0, SVG Export Plug-In . SVG Version: 6.00 Build 0)  -->
<!DOCTYPE svg PUBLIC "-//W3C//DTD SVG 1.1//EN" "http://www.w3.org/Graphics/SVG/1.1/DTD/svg11.dtd">
<svg version="1.1" id="Capa_1" xmlns="http://www.w3.org/2000/svg" xmlns:xlink="http://www.w3.org/1999/xlink" x="0px" y="0px"
	 width="841.89px" height="595.28px" viewBox="0 0 841.89 595.28" enable-background="new 0 0 841.89 595.28" xml:space="preserve">
<g>
	<linearGradient id="SVGID_1_" gradientUnits="userSpaceOnUse" x1="170.8779" y1="276.8301" x2="274.1719" y2="276.8301">
		<stop  offset="0" style="stop-color:#534998"/>
		<stop  offset="1" style="stop-color:#384E9D"/>
	</linearGradient>
	<path fill="url(#SVGID_1_)" d="M273.868,257.483c-13.693-13.693-32.113-21.608-51.477-21.608c-19.364,0-37.518,8.25-51.211,21.943
		c-1.528,20.738,2.828,41.785,11.138,59.488c4.091-12.916,14.268-23.152,27.156-27.311c-6.079-4.132-10.081-11.102-10.081-18.988
		c0-12.651,10.292-22.943,22.943-22.943c12.65,0,22.943,10.292,22.943,22.943c0,7.887-4.002,14.856-10.081,18.988
		c13.046,4.21,23.318,14.646,27.305,27.789C270.973,299.866,275.414,278.479,273.868,257.483z"/>
	<linearGradient id="SVGID_2_" gradientUnits="userSpaceOnUse" x1="205.3662" y1="271.0073" x2="239.3066" y2="271.0073">
		<stop  offset="0" style="stop-color:#534998"/>
		<stop  offset="1" style="stop-color:#384E9D"/>
	</linearGradient>
	<path fill="url(#SVGID_2_)" d="M222.343,287.978c9.354-0.004,16.964-7.614,16.964-16.97c0-9.357-7.613-16.971-16.97-16.971
		c-9.357,0-16.971,7.613-16.971,16.971c0,9.355,7.61,16.966,16.965,16.97c0.001,0,0.003,0,0.005,0
		C222.339,287.978,222.34,287.978,222.343,287.978z"/>
	<linearGradient id="SVGID_3_" gradientUnits="userSpaceOnUse" x1="186.6152" y1="326.5459" x2="258.1289" y2="326.5459">
		<stop  offset="0" style="stop-color:#534998"/>
		<stop  offset="1" style="stop-color:#384E9D"/>
	</linearGradient>
	<path fill="url(#SVGID_3_)" d="M222.341,293.951c-0.001,0-0.002,0-0.004,0s-0.003,0-0.004,0
		c-18.36,0.002-33.542,13.822-35.717,31.604c9.187,15.936,21.762,28.225,36.004,33.585c14.032-5.282,26.403-17.354,35.509-33.021
		C256.211,308.065,240.895,293.953,222.341,293.951z M225.75,326.019l2.265,16.601h-10.979l2.042-16.707
		c-2.752-1.296-4.661-4.087-4.661-7.33c0-4.479,3.63-8.108,8.108-8.108c4.478,0,8.108,3.629,8.108,8.108
		C230.633,321.912,228.623,324.771,225.75,326.019z"/>
</g>
<g>
	<path fill="#3C3C3B" d="M350.611,275.193c0,1.924-2.679,9.568-8.038,22.935c-5.359,13.367-8.038,20.989-8.038,22.865h-9.674
		c0-1.806-2.467-9.463-7.404-22.97s-7.405-21.117-7.405-22.83h11.15c0,1.713,1.571,7.786,4.714,18.222
		c3.143,10.436,4.713,16.357,4.713,17.765h0.599c0-1.36,1.576-7.071,4.73-17.131c3.154-10.061,4.731-16.346,4.731-18.855H350.611z"
		/>
	<path fill="#3C3C3B" d="M382.445,320.958l-8.302,0.28c-0.375-0.983-0.562-1.875-0.562-2.673h-0.458
		c-2.58,2.206-6.063,3.308-10.447,3.308c-2.932,0-5.364-0.815-7.299-2.444c-1.935-1.631-2.902-3.795-2.902-6.491
		c0-3.564,1.506-6.484,4.52-8.759c3.014-2.274,8.295-3.482,15.847-3.622c0.047-0.423,0.07-0.821,0.07-1.196
		c0-2.533-0.61-4.204-1.829-5.013c-1.219-0.81-3.459-1.213-6.718-1.213c-3.541,0-7,0.469-10.377,1.405l0.774-6.472
		c3.189-1.102,7.691-1.653,13.508-1.653c4.244,0,7.521,0.892,9.832,2.673c2.309,1.783,3.464,4.901,3.464,9.357
		c0,0.984-0.041,2.778-0.123,5.382c-0.083,2.604-0.124,4.34-0.124,5.206C381.319,313.888,381.694,317.862,382.445,320.958z
		 M373.053,313.641c-0.14-3.165-0.21-5.896-0.21-8.195c-7.997,0-11.995,2.028-11.995,6.085c0,2.792,1.759,4.187,5.276,4.187
		C368.89,315.717,371.2,315.025,373.053,313.641z"/>
	<path fill="#3C3C3B" d="M399.716,320.993h-9.604c0.353-8.044,0.528-16.755,0.528-26.136c0-9.146-0.363-16.92-1.091-23.322
		l10.166-0.562c-0.352,6.636-0.528,14.598-0.528,23.884C399.188,304.284,399.364,312.996,399.716,320.993z"/>
	<path fill="#3C3C3B" d="M436.404,320.958l-8.302,0.28c-0.375-0.983-0.563-1.875-0.563-2.673h-0.458
		c-2.578,2.206-6.062,3.308-10.446,3.308c-2.932,0-5.365-0.815-7.299-2.444c-1.936-1.631-2.903-3.795-2.903-6.491
		c0-3.564,1.507-6.484,4.52-8.759c3.013-2.274,8.296-3.482,15.847-3.622c0.047-0.423,0.07-0.821,0.07-1.196
		c0-2.533-0.609-4.204-1.828-5.013c-1.221-0.81-3.46-1.213-6.719-1.213c-3.542,0-7,0.469-10.377,1.405l0.774-6.472
		c3.189-1.102,7.692-1.653,13.508-1.653c4.244,0,7.521,0.892,9.832,2.673c2.309,1.783,3.465,4.901,3.465,9.357
		c0,0.984-0.041,2.778-0.124,5.382c-0.082,2.604-0.123,4.34-0.123,5.206C435.278,313.888,435.653,317.862,436.404,320.958z
		 M427.013,313.641c-0.142-3.165-0.212-5.896-0.212-8.195c-7.996,0-11.995,2.028-11.995,6.085c0,2.792,1.759,4.187,5.277,4.187
		C422.85,315.717,425.159,315.025,427.013,313.641z"/>
	<path fill="#3C3C3B" d="M494.866,287.576c0,1.336-1.952,6.824-5.856,16.462c-3.904,9.639-5.857,15.289-5.857,16.955h-8.195
		c0-1.079-0.961-4.397-2.885-9.955c-2.393-6.941-3.916-11.666-4.572-14.176h-0.563c-0.609,2.416-2.063,7.082-4.362,14.001
		c-1.852,5.486-2.779,8.863-2.779,10.13h-8.229c0-1.43-1.858-7.135-5.575-17.113c-3.718-9.978-5.576-15.412-5.576-16.304h10.131
		c0,0.962,1.025,4.989,3.077,12.083s3.079,11.309,3.079,12.646h0.527c0-1.619,1.173-5.822,3.517-12.612
		c2.346-6.788,3.519-10.828,3.519-12.117h8.266c0,0.892,1.144,4.937,3.43,12.136c2.287,7.199,3.43,11.396,3.43,12.594h0.492
		c0-1.314,1.038-5.307,3.113-11.979c2.076-6.671,3.113-10.922,3.113-12.751H494.866z"/>
	<path fill="#3C3C3B" d="M528.529,320.958l-8.302,0.28c-0.375-0.983-0.563-1.875-0.563-2.673h-0.458
		c-2.578,2.206-6.062,3.308-10.446,3.308c-2.931,0-5.364-0.815-7.299-2.444c-1.935-1.631-2.901-3.795-2.901-6.491
		c0-3.564,1.506-6.484,4.52-8.759s8.295-3.482,15.846-3.622c0.047-0.423,0.07-0.821,0.07-1.196c0-2.533-0.609-4.204-1.828-5.013
		c-1.219-0.81-3.459-1.213-6.719-1.213c-3.541,0-7,0.469-10.377,1.405l0.773-6.472c3.189-1.102,7.691-1.653,13.508-1.653
		c4.244,0,7.522,0.892,9.832,2.673c2.309,1.783,3.465,4.901,3.465,9.357c0,0.984-0.041,2.778-0.124,5.382
		c-0.081,2.604-0.123,4.34-0.123,5.206C527.403,313.888,527.778,317.862,528.529,320.958z M519.138,313.641
		c-0.142-3.165-0.212-5.896-0.212-8.195c-7.996,0-11.994,2.028-11.994,6.085c0,2.792,1.76,4.187,5.276,4.187
		C514.975,315.717,517.285,315.025,519.138,313.641z"/>
	<path fill="#3C3C3B" d="M558.499,287.576l-2.04,8.23c-1.735-0.703-3.494-1.055-5.275-1.055c-3.447,0-5.723,1.548-6.825,4.643
		c0,9.357,0.07,16.557,0.211,21.599h-9.357c0.399-7.059,0.599-12.826,0.599-17.307c0-5.581-0.586-10.869-1.758-15.864l8.969-0.984
		c0.398,2.58,0.598,4.092,0.598,4.537h0.563c2.158-3.307,5.03-4.96,8.618-4.96C554.489,286.415,556.389,286.803,558.499,287.576z"/>
	<path fill="#3C3C3B" d="M595.259,320.958l-8.338,0.28c-0.163-0.819-0.246-1.675-0.246-2.567h-0.527
		c-2.58,2.229-5.874,3.343-9.885,3.343c-4.502,0-8.079-1.631-10.729-4.891c-2.649-3.259-3.975-7.128-3.975-11.607
		c0-5.135,1.442-9.609,4.326-13.42c2.885-3.811,6.895-5.716,12.031-5.716c3.329,0,5.827,0.622,7.491,1.865h0.493
		c0-5.535-0.271-11.104-0.81-16.71l9.955-0.281c-0.376,5.466-0.563,13.32-0.563,23.568
		C594.483,305.211,594.742,313.923,595.259,320.958z M586.429,312.973c0-7.48-0.176-13.67-0.527-18.572
		c-1.618-1.126-3.553-1.688-5.805-1.688c-3.095,0-5.393,1.149-6.894,3.446c-1.501,2.3-2.252,5.114-2.252,8.442
		c0,2.955,0.727,5.505,2.181,7.65c1.454,2.146,3.471,3.22,6.051,3.22C582.63,315.471,585.045,314.639,586.429,312.973z"/>
	<path fill="#3C3C3B" d="M633.248,300.696c0,1.196-0.07,2.757-0.212,4.678l-22.653,0.388c0.329,2.65,1.466,4.854,3.412,6.613
		c1.947,1.759,4.503,2.639,7.67,2.639c3.517,0,7.257-0.528,11.22-1.584l-0.703,6.825c-3.236,1.172-7.246,1.759-12.03,1.759
		c-6.05,0-10.688-1.701-13.912-5.102s-4.836-7.491-4.836-12.275c0-4.995,1.529-9.328,4.589-12.998
		c3.061-3.67,7.312-5.505,12.752-5.505c4.972,0,8.665,1.349,11.081,4.045C632.04,292.876,633.248,296.383,633.248,300.696z
		 M625.017,300.381c0-5.395-2.298-8.091-6.895-8.091c-4.386,0-6.988,2.79-7.809,8.371L625.017,300.381z"/>
	<path fill="#3C3C3B" d="M671.378,320.993h-9.357c0.517-5.934,0.774-11.937,0.774-18.011c0-3.68-0.545-6.179-1.635-7.491
		c-1.091-1.314-2.75-1.971-4.978-1.971c-2.674,0-5.206,0.915-7.599,2.743c0.117,9.147,0.177,17.39,0.177,24.729h-9.463
		c0.423-7.34,0.633-13.108,0.633-17.307c0-5.604-0.573-10.892-1.724-15.864l9.005-0.984l0.599,3.728h0.563
		c3.212-2.766,6.906-4.15,11.08-4.15c3.612,0,6.502,0.851,8.671,2.55c2.169,1.701,3.254,4.837,3.254,9.41
		c0,0.681-0.029,1.589-0.088,2.727c-0.059,1.137-0.088,2.303-0.088,3.499C671.202,307.768,671.261,313.231,671.378,320.993z"/>
</g>
</svg>
