<?xml version="1.0" encoding="UTF-8" standalone="no"?>
<svg
   xmlns:dc="http://purl.org/dc/elements/1.1/"
   xmlns:cc="http://creativecommons.org/ns#"
   xmlns:rdf="http://www.w3.org/1999/02/22-rdf-syntax-ns#"
   xmlns:svg="http://www.w3.org/2000/svg"
   xmlns="http://www.w3.org/2000/svg"
   xmlns:xlink="http://www.w3.org/1999/xlink"
   xmlns:sodipodi="http://sodipodi.sourceforge.net/DTD/sodipodi-0.dtd"
   xmlns:inkscape="http://www.inkscape.org/namespaces/inkscape"
   width="24"
   height="24"
   viewBox="0 0 24 24"
   version="1.1"
   id="svg217"
   sodipodi:docname="com.github.liljebergxyz.valawarden.svg"
   inkscape:export-filename="/home/daniel/dev/valawarden/data/images/com.github.liljebergxyz.valawarden.png"
   inkscape:export-xdpi="384"
   inkscape:export-ydpi="384"
   inkscape:version="0.92.3 (2405546, 2018-03-11)">
  <metadata
     id="metadata223">
    <rdf:RDF>
      <cc:Work
         rdf:about="">
        <dc:format>image/svg+xml</dc:format>
        <dc:type
           rdf:resource="http://purl.org/dc/dcmitype/StillImage" />
        <dc:title></dc:title>
      </cc:Work>
    </rdf:RDF>
  </metadata>
  <defs
     id="defs221">
    <linearGradient
       gradientTransform="matrix(0.86450197,0,0,0.86450197,-128.45526,-192.47724)"
       id="linearGradient3848"
       gradientUnits="userSpaceOnUse"
       x1="170.8779"
       y1="276.83011"
       x2="274.17191"
       y2="276.83011">
      <stop
         offset="0"
         style="stop-color:#444995;stop-opacity:1"
         id="stop3844" />
      <stop
         offset="1"
         style="stop-color:#13449d;stop-opacity:1"
         id="stop3846" />
    </linearGradient>
    <linearGradient
       id="linearGradient3770">
      <stop
         id="stop3766"
         offset="0"
         style="stop-opacity:0.19607843;stop-color:#ffffff" />
      <stop
         style="stop-color:#ffffff;stop-opacity:0"
         offset="0.06666666"
         id="stop3796" />
      <stop
         id="stop3798"
         offset="0.95208335"
         style="stop-color:#ffffff;stop-opacity:0.23529412" />
      <stop
         id="stop3768"
         stop-opacity="0"
         offset="1"
         style="stop-color:#ffffff;stop-opacity:0" />
    </linearGradient>
    <linearGradient
       y2="276.83011"
       x2="274.17191"
       y1="276.83011"
       x1="170.8779"
       gradientUnits="userSpaceOnUse"
       id="linearGradient3746"
       gradientTransform="matrix(0.86450197,0,0,0.86450197,-128.45526,-192.47724)">
      <stop
         id="stop3742"
         style="stop-color:#444995;stop-opacity:1"
         offset="0" />
      <stop
         id="stop3744"
         style="stop-color:#0f4e9d;stop-opacity:1"
         offset="1" />
    </linearGradient>
    <radialGradient
       cx="4.993"
       cy="43.5"
       r="2.5"
       fx="4.993"
       fy="43.5"
       id="h"
       xlink:href="#b"
       gradientUnits="userSpaceOnUse"
       gradientTransform="matrix(2.00378,0,0,1.4,27.988,-17.4)" />
    <linearGradient
       id="b">
      <stop
         offset="0"
         stop-color="#181818"
         id="stop5614" />
      <stop
         offset="1"
         stop-color="#181818"
         stop-opacity="0"
         id="stop5616" />
    </linearGradient>
    <radialGradient
       cx="4.993"
       cy="43.5"
       r="2.5"
       fx="4.993"
       fy="43.5"
       id="i"
       xlink:href="#b"
       gradientUnits="userSpaceOnUse"
       gradientTransform="matrix(2.00378,0,0,1.4,-48.012,-104.4)" />
    <radialGradient
       gradientUnits="userSpaceOnUse"
       gradientTransform="matrix(0.2971824,0,0,0.02031962,2.5755346,21.127636)"
       r="28"
       fy="59.5"
       fx="32"
       cy="59.5"
       cx="32"
       id="g"
       xlink:href="#f" />
    <linearGradient
       id="f">
      <stop
         offset="0"
         id="stop5588" />
      <stop
         offset="1"
         stop-opacity="0"
         id="stop5590" />
    </linearGradient>
    <linearGradient
       gradientTransform="matrix(0.86450197,0,0,0.86450197,-128.45526,-192.47724)"
       id="SVGID_3_"
       gradientUnits="userSpaceOnUse"
       x1="186.6152"
       y1="326.5459"
       x2="258.12891"
       y2="326.5459">
      <stop
         offset="0"
         style="stop-color:#534998"
         id="stop16" />
      <stop
         offset="1"
         style="stop-color:#384E9D"
         id="stop18" />
    </linearGradient>
    <linearGradient
       gradientTransform="matrix(0.86450197,0,0,0.86450197,-128.45526,-192.47724)"
       id="SVGID_2_"
       gradientUnits="userSpaceOnUse"
       x1="205.3662"
       y1="271.00729"
       x2="239.30659"
       y2="271.00729">
      <stop
         offset="0"
         style="stop-color:#534998"
         id="stop9" />
      <stop
         offset="1"
         style="stop-color:#384E9D"
         id="stop11" />
    </linearGradient>
    <linearGradient
       gradientTransform="matrix(0.86450197,0,0,0.86450197,-128.45526,-192.47724)"
       id="SVGID_1_-3"
       gradientUnits="userSpaceOnUse"
       x1="170.8779"
       y1="276.83011"
       x2="274.17191"
       y2="276.83011">
      <stop
         offset="0"
         style="stop-color:#534998"
         id="stop2" />
      <stop
         offset="1"
         style="stop-color:#384E9D"
         id="stop4" />
    </linearGradient>
    <linearGradient
       inkscape:collect="always"
       xlink:href="#linearGradient3848"
       id="linearGradient3735"
       x1="48.651814"
       y1="41.809288"
       x2="78.858383"
       y2="41.809288"
       gradientUnits="userSpaceOnUse" />
    <linearGradient
       inkscape:collect="always"
       xlink:href="#linearGradient3746"
       id="linearGradient3810"
       x1="18.836754"
       y1="47.225349"
       x2="108.9992"
       y2="47.225349"
       gradientUnits="userSpaceOnUse"
       gradientTransform="matrix(0.18965486,0,0,0.18965486,-0.07248241,71.957532)" />
    <linearGradient
       inkscape:collect="always"
       xlink:href="#linearGradient3848"
       id="linearGradient3834"
       x1="32.427944"
       y1="89.8368"
       x2="95.142555"
       y2="89.8368"
       gradientUnits="userSpaceOnUse" />
    <linearGradient
       inkscape:collect="always"
       xlink:href="#linearGradient3848"
       id="linearGradient3850"
       gradientUnits="userSpaceOnUse"
       x1="18.836754"
       y1="47.225349"
       x2="108.9992"
       y2="47.225349" />
    <linearGradient
       inkscape:collect="always"
       xlink:href="#linearGradient3770"
       id="linearGradient3855"
       gradientUnits="userSpaceOnUse"
       x1="18.836754"
       y1="47.225349"
       x2="108.9992"
       y2="47.225349" />
    <linearGradient
       inkscape:collect="always"
       xlink:href="#linearGradient3770"
       id="linearGradient3860"
       gradientUnits="userSpaceOnUse"
       x1="32.427944"
       y1="89.8368"
       x2="95.142555"
       y2="89.8368" />
    <linearGradient
       inkscape:collect="always"
       xlink:href="#linearGradient3770"
       id="linearGradient3889"
       gradientUnits="userSpaceOnUse"
       x1="48.651814"
       y1="41.809288"
       x2="78.858383"
       y2="41.809288" />
    <clipPath
       clipPathUnits="userSpaceOnUse"
       id="clipPath7615">
      <path
         id="path7617"
         d="M 108.30419,30.11733 C 96.466556,18.279705 80.542429,11.43717 63.802213,11.43717 c -16.740218,0 -32.434386,7.132142 -44.272012,18.969768 -1.320959,17.928044 2.444812,36.123217 9.628822,51.427497 C 32.695701,70.668527 41.493738,61.819483 52.63544,58.22402 47.380132,54.651898 43.920395,48.626319 43.920395,41.808856 c 0,-10.936816 8.897455,-19.834269 19.83427,-19.834269 10.93595,0 19.83427,8.897453 19.83427,19.834269 0,6.818327 -3.459739,12.843042 -8.715046,16.415164 11.278294,3.639554 20.158458,12.661496 23.605229,24.023647 C 105.80145,66.757518 109.6407,48.268415 108.30419,30.11733 Z"
         style="display:inline;fill:url(#linearGradient7619);stroke-width:0.86450201"
         inkscape:connector-curvature="0" />
    </clipPath>
    <linearGradient
       inkscape:collect="always"
       xlink:href="#SVGID_1_-3"
       id="linearGradient7619"
       gradientUnits="userSpaceOnUse"
       gradientTransform="matrix(0.86450197,0,0,0.86450197,-128.45526,-192.47724)"
       x1="170.8779"
       y1="276.83011"
       x2="274.17191"
       y2="276.83011" />
    <clipPath
       clipPathUnits="userSpaceOnUse"
       id="clipPath7626">
      <path
         id="path7628"
         d="m 63.760715,56.48032 c 8.086553,-0.0035 14.665415,-6.582318 14.665415,-14.6706 0,-8.089144 -6.581455,-14.671464 -14.670602,-14.671464 -8.089144,0 -14.671462,6.581455 -14.671462,14.671464 0,8.087416 6.578861,14.667142 14.666276,14.6706 8.65e-4,0 0.0026,0 0.0043,0 0.0026,0 0.0035,0 0.006,0 z"
         style="display:inline;fill:url(#linearGradient7630);stroke-width:0.86450201"
         inkscape:connector-curvature="0" />
    </clipPath>
    <linearGradient
       inkscape:collect="always"
       xlink:href="#SVGID_2_"
       id="linearGradient7630"
       gradientUnits="userSpaceOnUse"
       gradientTransform="matrix(0.86450197,0,0,0.86450197,-128.45526,-192.47724)"
       x1="205.3662"
       y1="271.00729"
       x2="239.30659"
       y2="271.00729" />
    <clipPath
       clipPathUnits="userSpaceOnUse"
       id="clipPath7637">
      <path
         id="path7639"
         d="m 63.758987,61.64399 c -8.64e-4,0 -0.0017,0 -0.0035,0 -0.0017,0 -0.0026,0 -0.0035,0 C 47.879686,61.64569 34.754816,73.593137 32.874524,88.965712 40.81665,102.74242 51.687763,113.36628 64,118 76.130876,113.43372 86.82563,102.99745 94.697786,89.45329 93.039671,73.845571 79.798958,61.645719 63.758987,61.64399 Z m 2.947087,27.722851 1.958097,14.351609 h -9.491367 l 1.765313,-14.443246 c -2.37911,-1.120395 -4.029444,-3.53322 -4.029444,-6.336801 0,-3.872103 3.138142,-7.009383 7.009383,-7.009383 3.871239,0 7.009383,3.13728 7.009383,7.009383 0,2.877928 -1.737649,5.349538 -4.221365,6.428438 z"
         style="display:inline;fill:url(#linearGradient7641);stroke-width:0.86450201"
         inkscape:connector-curvature="0" />
    </clipPath>
    <linearGradient
       inkscape:collect="always"
       xlink:href="#SVGID_3_"
       id="linearGradient7641"
       gradientUnits="userSpaceOnUse"
       gradientTransform="matrix(0.86450197,0,0,0.86450197,-128.45526,-192.47724)"
       x1="186.6152"
       y1="326.5459"
       x2="258.12891"
       y2="326.5459" />
    <linearGradient
       inkscape:collect="always"
       xlink:href="#SVGID_1_-3"
       id="linearGradient7649"
       gradientUnits="userSpaceOnUse"
       gradientTransform="matrix(0.16395699,0,0,0.16395699,-24.434646,35.453288)"
       x1="170.8779"
       y1="276.83011"
       x2="274.17191"
       y2="276.83011" />
    <linearGradient
       inkscape:collect="always"
       xlink:href="#SVGID_3_"
       id="linearGradient7651"
       gradientUnits="userSpaceOnUse"
       gradientTransform="matrix(0.16395699,0,0,0.16395699,-24.434646,35.453288)"
       x1="186.6152"
       y1="326.5459"
       x2="258.12891"
       y2="326.5459" />
    <linearGradient
       inkscape:collect="always"
       xlink:href="#SVGID_2_"
       id="linearGradient7653"
       gradientUnits="userSpaceOnUse"
       gradientTransform="matrix(0.16395699,0,0,0.16395699,-24.434646,35.453288)"
       x1="205.3662"
       y1="271.00729"
       x2="239.30659"
       y2="271.00729" />
  </defs>
  <sodipodi:namedview
     pagecolor="#ffffff"
     bordercolor="#666666"
     borderopacity="1"
     objecttolerance="10"
     gridtolerance="10"
     guidetolerance="10"
     inkscape:pageopacity="0"
     inkscape:pageshadow="2"
     inkscape:window-width="1720"
     inkscape:window-height="1377"
     id="namedview219"
     showgrid="true"
     inkscape:zoom="22.627417"
     inkscape:cx="8.2508451"
     inkscape:cy="19.073253"
     inkscape:window-x="0"
     inkscape:window-y="30"
     inkscape:window-maximized="0"
     inkscape:current-layer="layer3"
     showguides="true"
     inkscape:lockguides="true"
     inkscape:pagecheckerboard="false"
     scale-x="1">
    <inkscape:grid
       type="xygrid"
       id="grid5325"
       empspacing="4" />
    <inkscape:grid
       type="xygrid"
       id="grid5327"
       color="#ffef3f"
       opacity="0.2745098"
       empspacing="2"
       empcolor="#ffef3f"
       empopacity="0.2745098"
       spacingx="0.5"
       spacingy="0.5"
       dotted="true" />
  </sodipodi:namedview>
  <ellipse
     style="opacity:0.1;fill:url(#g);stroke-width:0.23740701"
     ry="0.56896454"
     rx="8.3211069"
     cy="22.336685"
     cx="12.085369"
     id="ellipse5630" />
  <g
     transform="matrix(0.18965486,0,0,0.18965486,5.9955976,10.957394)"
     style="opacity:0.4"
     id="g5636">
    <path
       style="fill:url(#h)"
       inkscape:connector-curvature="0"
       d="m 38,40 h 5 v 7 h -5 z"
       transform="matrix(1.57895,0,0,0.71429,-28,28.429)"
       id="path5632" />
    <path
       style="fill:url(#i)"
       inkscape:connector-curvature="0"
       transform="matrix(-1.57895,0,0,-0.71429,-28,28.429)"
       d="m -38,-47 h 5 v 7 h -5 z"
       id="path5634" />
  </g>
  <g
     inkscape:groupmode="layer"
     id="layer1"
     inkscape:label="Org"
     style="display:inline"
     transform="translate(0,-72)">
    <path
       inkscape:connector-curvature="0"
       style="fill:url(#linearGradient7649);stroke-width:0.16395701"
       d="m 20.467934,77.66943 c -2.245064,-2.245063 -5.265152,-3.542783 -8.440015,-3.542783 -3.1748644,0 -6.1513404,1.352645 -8.3964034,3.597709 -0.250526,3.40014 0.463671,6.850943 1.826153,9.753474 0.670748,-2.117669 2.339339,-3.795933 4.452417,-4.47783 -0.996695,-0.67747 -1.652851,-1.82025 -1.652851,-3.113215 0,-2.07422 1.687446,-3.761666 3.7616664,-3.761666 2.074056,0 3.761665,1.687446 3.761665,3.761666 0,1.293128 -0.656156,2.435745 -1.65285,3.113215 2.138983,0.690259 3.823149,2.401315 4.476846,4.556202 1.388716,-2.937782 2.116848,-6.44433 1.863372,-9.886772 z"
       id="path7" />
    <path
       inkscape:connector-curvature="0"
       style="fill:url(#linearGradient7651);stroke-width:0.16395701"
       d="m 12.01972,83.648614 c -1.64e-4,0 -3.22e-4,0 -6.5e-4,0 -3.22e-4,0 -4.87e-4,0 -7e-4,0 -3.0102594,3.23e-4 -5.4994544,2.266214 -5.8560604,5.181698 1.506262,2.612819 3.568021,4.627686 5.9030974,5.506493 2.300702,-0.866017 4.329014,-2.845306 5.822007,-5.414022 -0.314469,-2.960079 -2.825635,-5.273841 -5.867694,-5.274169 z m 0.55893,5.257774 0.371362,2.721852 h -1.800084 l 0.334801,-2.739232 c -0.45121,-0.212488 -0.764204,-0.670092 -0.764204,-1.201805 0,-0.734363 0.595164,-1.329363 1.329364,-1.329363 0.734199,0 1.329363,0.595 1.329363,1.329363 0,0.545813 -0.329553,1.014566 -0.800602,1.219185 z"
       id="path21" />
    <path
       inkscape:connector-curvature="0"
       style="fill:url(#linearGradient7653);stroke-width:0.16395701"
       d="m 12.020048,82.669299 c 1.533654,-6.5e-4 2.781367,-1.248369 2.781367,-2.78235 0,-1.534146 -1.248205,-2.782515 -2.782351,-2.782515 -1.534145,0 -2.7825144,1.248205 -2.7825144,2.782515 0,1.533817 1.2477134,2.781694 2.7815314,2.78235 1.64e-4,0 4.87e-4,0 8e-4,0 4.87e-4,0 7e-4,0 0.0011,0 z"
       id="path14" />
  </g>
  <g
     inkscape:groupmode="layer"
     id="layer3"
     inkscape:label="InnerGlow"
     style="display:inline"
     transform="translate(0,-72)">
    <a
       id="a3894"
       clip-path="url(#clipPath7615)"
       transform="matrix(0.18965486,0,0,0.18965486,-0.07248241,71.957532)">
      <path
         id="path3852"
         d="M 108.30419,30.11733 C 96.466556,18.279705 80.542429,11.43717 63.802213,11.43717 c -16.740218,0 -32.434386,7.132142 -44.272012,18.969768 -1.320959,17.928044 2.444812,36.123217 9.628822,51.427497 C 32.695701,70.668527 41.493738,61.819483 52.63544,58.22402 47.380132,54.651898 43.920395,48.626319 43.920395,41.808856 c 0,-10.936816 8.897455,-19.834269 19.83427,-19.834269 10.93595,0 19.83427,8.897453 19.83427,19.834269 0,6.818327 -3.459739,12.843042 -8.715046,16.415164 11.278294,3.639554 20.158458,12.661496 23.605229,24.023647 C 105.80145,66.757518 109.6407,48.268415 108.30419,30.11733 Z"
         style="display:inline;fill:none;fill-opacity:1;stroke:url(#linearGradient3855);stroke-width:1.73000002;stroke-miterlimit:4;stroke-dasharray:none;stroke-opacity:1"
         inkscape:connector-curvature="0" />
    </a>
    <path
       inkscape:connector-curvature="0"
       style="display:inline;fill:none;fill-opacity:1;stroke:url(#linearGradient3810);stroke-width:0.16395701;stroke-opacity:1"
       d="m 20.467934,77.66943 c -2.245064,-2.245063 -5.265152,-3.542783 -8.440015,-3.542783 -3.1748644,0 -6.1513404,1.352645 -8.3964034,3.597709 -0.250526,3.40014 0.463671,6.850943 1.826153,9.753474 0.670748,-2.117669 2.339339,-3.795933 4.452417,-4.47783 -0.996695,-0.67747 -1.652851,-1.82025 -1.652851,-3.113215 0,-2.07422 1.687446,-3.761666 3.7616664,-3.761666 2.074056,0 3.761665,1.687446 3.761665,3.761666 0,1.293128 -0.656156,2.435745 -1.65285,3.113215 2.138983,0.690259 3.823149,2.401315 4.476846,4.556202 1.388716,-2.937782 2.116848,-6.44433 1.863372,-9.886772 z"
       id="path3748" />
    <path
       inkscape:connector-curvature="0"
       style="display:inline;fill:none;stroke:url(#linearGradient3860);stroke-width:1.73000002;stroke-miterlimit:4;stroke-dasharray:none;stroke-opacity:1"
       d="m 63.758987,61.64399 c -8.64e-4,0 -0.0017,0 -0.0035,0 -0.0017,0 -0.0026,0 -0.0035,0 C 47.879686,61.64569 34.754816,73.593137 32.874524,88.965712 40.81665,102.74242 51.687763,113.36628 64,118 76.130876,113.43372 86.82563,102.99745 94.697786,89.45329 93.039671,73.845571 79.798958,61.645719 63.758987,61.64399 Z m 2.947087,27.722851 1.958097,14.351609 h -9.491367 l 1.765313,-14.443246 c -2.37911,-1.120395 -4.029444,-3.53322 -4.029444,-6.336801 0,-3.872103 3.138142,-7.009383 7.009383,-7.009383 3.871239,0 7.009383,3.13728 7.009383,7.009383 0,2.877928 -1.737649,5.349538 -4.221365,6.428438 z"
       id="path3857"
       clip-path="url(#clipPath7637)"
       transform="matrix(0.18965486,0,0,0.18965486,-0.07248241,71.957532)" />
    <path
       inkscape:connector-curvature="0"
       style="display:inline;fill:none;stroke:url(#linearGradient3889);stroke-width:1.73000002;stroke-miterlimit:4;stroke-dasharray:none;stroke-opacity:1"
       d="m 63.760715,56.48032 c 8.086553,-0.0035 14.665415,-6.582318 14.665415,-14.6706 0,-8.089144 -6.581455,-14.671464 -14.670602,-14.671464 -8.089144,0 -14.671462,6.581455 -14.671462,14.671464 0,8.087416 6.578861,14.667142 14.666276,14.6706 8.65e-4,0 0.0026,0 0.0043,0 0.0026,0 0.0035,0 0.006,0 z"
       id="path3886"
       clip-path="url(#clipPath7626)"
       transform="matrix(0.18965486,0,0,0.18965486,-0.07248241,71.957532)" />
  </g>
  <g
     inkscape:groupmode="layer"
     id="layer2"
     inkscape:label="Stroke"
     style="display:none"
     transform="translate(0,-72)">
    <path
       id="path3717"
       d="M 108.30419,30.11733 C 96.466556,18.279705 80.542429,11.43717 63.802213,11.43717 c -16.740218,0 -32.434386,7.132142 -44.272012,18.969768 -1.320959,17.928044 2.444812,36.123217 9.628822,51.427497 C 32.695701,70.668527 41.493738,61.819483 52.63544,58.22402 47.380132,54.651898 43.920395,48.626319 43.920395,41.808856 c 0,-10.936816 8.897455,-19.834269 19.83427,-19.834269 10.93595,0 19.83427,8.897453 19.83427,19.834269 0,6.818327 -3.459739,12.843042 -8.715046,16.415164 11.278294,3.639554 20.158458,12.661496 23.605229,24.023647 C 105.80145,66.757518 109.6407,48.268415 108.30419,30.11733 Z"
       style="fill:none;fill-opacity:1;stroke:url(#linearGradient3850);stroke-width:0.86450201;stroke-opacity:1"
       inkscape:connector-curvature="0" />
    <path
       id="path3719"
       d="m 63.758987,61.64399 c -8.64e-4,0 -0.0017,0 -0.0035,0 -0.0017,0 -0.0026,0 -0.0035,0 C 47.879686,61.64569 34.754816,73.593137 32.874524,88.965712 40.81665,102.74242 51.687763,113.36628 64,118 76.130876,113.43372 86.82563,102.99745 94.697786,89.45329 93.039671,73.845571 79.798958,61.645719 63.758987,61.64399 Z m 2.947087,27.722851 1.958097,14.351609 h -9.491367 l 1.765313,-14.443246 c -2.37911,-1.120395 -4.029444,-3.53322 -4.029444,-6.336801 0,-3.872103 3.138142,-7.009383 7.009383,-7.009383 3.871239,0 7.009383,3.13728 7.009383,7.009383 0,2.877928 -1.737649,5.349538 -4.221365,6.428438 z"
       style="fill:none;stroke:url(#linearGradient3834);stroke-width:0.86450201;stroke-opacity:1"
       inkscape:connector-curvature="0" />
    <path
       id="path3726"
       d="m 63.760715,56.48032 c 8.086553,-0.0035 14.665415,-6.582318 14.665415,-14.6706 0,-8.089144 -6.581455,-14.671464 -14.670602,-14.671464 -8.089144,0 -14.671462,6.581455 -14.671462,14.671464 0,8.087416 6.578861,14.667142 14.666276,14.6706 8.65e-4,0 0.0026,0 0.0043,0 0.0026,0 0.0035,0 0.006,0 z"
       style="display:inline;fill:none;stroke:url(#linearGradient3735);stroke-width:0.86450201;stroke-opacity:1"
       inkscape:connector-curvature="0" />
  </g>
</svg>
