<?xml version="1.0" encoding="utf-8"?>
<!-- Generator: Adobe Illustrator 16.0.0, SVG Export Plug-In . SVG Version: 6.00 Build 0)  -->
<!DOCTYPE svg PUBLIC "-//W3C//DTD SVG 1.1//EN" "http://www.w3.org/Graphics/SVG/1.1/DTD/svg11.dtd">
<svg version="1.1" id="Capa_1" xmlns="http://www.w3.org/2000/svg" xmlns:xlink="http://www.w3.org/1999/xlink" x="0px" y="0px"
	 width="841.89px" height="595.28px" viewBox="0 0 841.89 595.28" enable-background="new 0 0 841.89 595.28" xml:space="preserve">
<g>
	<linearGradient id="SVGID_1_" gradientUnits="userSpaceOnUse" x1="170.8779" y1="276.8301" x2="274.1719" y2="276.8301">
		<stop  offset="0" style="stop-color:#534998"/>
		<stop  offset="1" style="stop-color:#384E9D"/>
	</linearGradient>
	<path fill="url(#SVGID_1_)" d="M273.868,257.483c-13.693-13.693-32.113-21.608-51.477-21.608c-19.364,0-37.518,8.25-51.211,21.943
		c-1.528,20.738,2.828,41.785,11.138,59.488c4.091-12.916,14.268-23.152,27.156-27.311c-6.079-4.132-10.081-11.102-10.081-18.988
		c0-12.651,10.292-22.943,22.943-22.943c12.65,0,22.943,10.292,22.943,22.943c0,7.887-4.002,14.856-10.081,18.988
		c13.046,4.21,23.318,14.646,27.305,27.789C270.973,299.866,275.414,278.479,273.868,257.483z"/>
	<linearGradient id="SVGID_2_" gradientUnits="userSpaceOnUse" x1="205.3662" y1="271.0073" x2="239.3066" y2="271.0073">
		<stop  offset="0" style="stop-color:#534998"/>
		<stop  offset="1" style="stop-color:#384E9D"/>
	</linearGradient>
	<path fill="url(#SVGID_2_)" d="M222.343,287.978c9.354-0.004,16.964-7.614,16.964-16.97c0-9.357-7.613-16.971-16.97-16.971
		c-9.357,0-16.971,7.613-16.971,16.971c0,9.355,7.61,16.966,16.965,16.97c0.001,0,0.003,0,0.005,0
		C222.339,287.978,222.34,287.978,222.343,287.978z"/>
	<linearGradient id="SVGID_3_" gradientUnits="userSpaceOnUse" x1="186.6152" y1="326.5459" x2="258.1289" y2="326.5459">
		<stop  offset="0" style="stop-color:#534998"/>
		<stop  offset="1" style="stop-color:#384E9D"/>
	</linearGradient>
	<path fill="url(#SVGID_3_)" d="M222.341,293.951c-0.001,0-0.002,0-0.004,0s-0.003,0-0.003,0
		c-18.361,0.002-33.543,13.822-35.718,31.604c9.187,15.936,21.762,28.225,36.004,33.585c14.032-5.282,26.403-17.354,35.509-33.021
		C256.211,308.065,240.895,293.953,222.341,293.951z M225.75,326.019l2.265,16.601h-10.979l2.042-16.707
		c-2.752-1.296-4.661-4.087-4.661-7.33c0-4.479,3.63-8.108,8.108-8.108c4.478,0,8.108,3.629,8.108,8.108
		C230.633,321.912,228.623,324.771,225.75,326.019z"/>
</g>
<g>
	<path d="M311.039,273.598h8.73l11.225,31.691l11.387-31.691h8.719l-16.073,44.61h-8.188L311.039,273.598z"/>
	<path d="M381.352,285.213h8.279v32.995h-8.279v-3.487c-1.616,1.537-3.237,2.644-4.862,3.321c-1.626,0.677-3.388,1.016-5.286,1.016
		c-4.261,0-7.946-1.653-11.057-4.958c-3.11-3.306-4.665-7.415-4.665-12.328c0-5.095,1.505-9.27,4.514-12.525
		c3.009-3.255,6.664-4.882,10.965-4.882c1.979,0,3.836,0.375,5.573,1.122c1.737,0.748,3.342,1.87,4.817,3.366V285.213z
		 M372.648,292.006c-2.559,0-4.685,0.905-6.377,2.714c-1.693,1.81-2.539,4.129-2.539,6.959c0,2.852,0.861,5.197,2.584,7.036
		c1.723,1.84,3.844,2.76,6.362,2.76c2.6,0,4.755-0.904,6.468-2.714c1.712-1.809,2.569-4.18,2.569-7.111
		c0-2.871-0.857-5.196-2.569-6.976C377.434,292.896,375.268,292.006,372.648,292.006z"/>
	<path d="M397.091,272.476h8.279v45.732h-8.279V272.476z"/>
	<path d="M437.244,285.213h8.279v32.995h-8.279v-3.487c-1.615,1.537-3.236,2.644-4.861,3.321c-1.626,0.677-3.388,1.016-5.286,1.016
		c-4.261,0-7.947-1.653-11.057-4.958c-3.109-3.306-4.665-7.415-4.665-12.328c0-5.095,1.504-9.27,4.514-12.525
		c3.009-3.255,6.664-4.882,10.964-4.882c1.98,0,3.837,0.375,5.574,1.122c1.736,0.748,3.342,1.87,4.816,3.366V285.213z
		 M428.54,292.006c-2.559,0-4.685,0.905-6.377,2.714c-1.693,1.81-2.539,4.129-2.539,6.959c0,2.852,0.861,5.197,2.584,7.036
		c1.722,1.84,3.843,2.76,6.361,2.76c2.6,0,4.756-0.904,6.469-2.714c1.712-1.809,2.569-4.18,2.569-7.111
		c0-2.871-0.857-5.196-2.569-6.976C433.326,292.896,431.16,292.006,428.54,292.006z"/>
	<path d="M450.239,285.213h8.104l6.635,18.772l7.139-18.772h4.956l7.011,18.561l6.644-18.561h8.156l-12.04,32.995h-5.246
		l-7.036-18.802l-7.248,18.802h-5.187L450.239,285.213z"/>
	<path d="M527.922,285.213h8.279v32.995h-8.279v-3.487c-1.616,1.537-3.237,2.644-4.862,3.321c-1.626,0.677-3.387,1.016-5.286,1.016
		c-4.261,0-7.946-1.653-11.057-4.958c-3.109-3.306-4.664-7.415-4.664-12.328c0-5.095,1.505-9.27,4.514-12.525
		c3.009-3.255,6.663-4.882,10.965-4.882c1.979,0,3.836,0.375,5.573,1.122c1.737,0.748,3.343,1.87,4.817,3.366V285.213z
		 M519.218,292.006c-2.56,0-4.685,0.905-6.377,2.714c-1.693,1.81-2.539,4.129-2.539,6.959c0,2.852,0.86,5.197,2.584,7.036
		c1.723,1.84,3.844,2.76,6.362,2.76c2.6,0,4.756-0.904,6.468-2.714c1.713-1.809,2.569-4.18,2.569-7.111
		c0-2.871-0.856-5.196-2.569-6.976C524.004,292.896,521.838,292.006,519.218,292.006z"/>
	<path d="M542.63,285.213h7.097v4.155c0.769-1.638,1.789-2.881,3.063-3.73c1.274-0.849,2.669-1.273,4.186-1.273
		c1.071,0,2.193,0.283,3.366,0.849l-2.578,7.127c-0.97-0.485-1.769-0.728-2.396-0.728c-1.273,0-2.351,0.789-3.229,2.366
		c-0.88,1.577-1.319,4.67-1.319,9.28l0.03,1.607v13.343h-8.219V285.213z"/>
	<path d="M588.787,272.476h8.279v45.732h-8.279v-3.487c-1.615,1.537-3.236,2.644-4.861,3.321c-1.626,0.677-3.388,1.016-5.286,1.016
		c-4.261,0-7.946-1.653-11.057-4.958c-3.109-3.306-4.664-7.415-4.664-12.328c0-5.095,1.504-9.27,4.514-12.525
		c3.009-3.255,6.663-4.882,10.966-4.882c1.979,0,3.836,0.375,5.572,1.122c1.737,0.748,3.343,1.87,4.816,3.366V272.476z
		 M580.084,292.006c-2.56,0-4.685,0.905-6.377,2.714c-1.693,1.81-2.539,4.129-2.539,6.959c0,2.852,0.86,5.197,2.583,7.036
		c1.724,1.84,3.844,2.76,6.363,2.76c2.6,0,4.755-0.904,6.468-2.714c1.713-1.809,2.569-4.18,2.569-7.111
		c0-2.871-0.856-5.196-2.569-6.976C584.869,292.896,582.703,292.006,580.084,292.006z"/>
	<path d="M638.493,304.106h-26.597c0.384,2.346,1.41,4.211,3.078,5.596s3.796,2.077,6.384,2.077c3.094,0,5.752-1.081,7.976-3.245
		l6.976,3.275c-1.738,2.468-3.821,4.291-6.247,5.474c-2.427,1.183-5.308,1.774-8.644,1.774c-5.176,0-9.391-1.633-12.646-4.897
		c-3.255-3.265-4.882-7.354-4.882-12.268c0-5.034,1.622-9.214,4.867-12.54s7.313-4.989,12.206-4.989
		c5.196,0,9.422,1.663,12.677,4.989s4.883,7.718,4.883,13.177L638.493,304.106z M630.214,297.586
		c-0.547-1.84-1.625-3.336-3.235-4.489s-3.479-1.729-5.604-1.729c-2.309,0-4.335,0.647-6.076,1.941
		c-1.093,0.809-2.105,2.234-3.037,4.276H630.214z"/>
	<path d="M645.195,285.213h8.279v3.381c1.878-1.583,3.578-2.684,5.103-3.302c1.523-0.619,3.084-0.928,4.679-0.928
		c3.271,0,6.047,1.142,8.328,3.427c1.918,1.941,2.877,4.812,2.877,8.613v21.805h-8.188v-14.449c0-3.937-0.177-6.552-0.53-7.845
		c-0.353-1.293-0.968-2.277-1.846-2.954c-0.877-0.677-1.961-1.015-3.251-1.015c-1.675,0-3.112,0.561-4.312,1.682
		c-1.201,1.121-2.032,2.671-2.496,4.649c-0.243,1.03-0.363,3.262-0.363,6.694v13.237h-8.279V285.213z"/>
</g>
</svg>
