<?xml version="1.0" encoding="UTF-8" standalone="no"?>
<svg
   xmlns:dc="http://purl.org/dc/elements/1.1/"
   xmlns:cc="http://creativecommons.org/ns#"
   xmlns:rdf="http://www.w3.org/1999/02/22-rdf-syntax-ns#"
   xmlns:svg="http://www.w3.org/2000/svg"
   xmlns="http://www.w3.org/2000/svg"
   xmlns:xlink="http://www.w3.org/1999/xlink"
   xmlns:sodipodi="http://sodipodi.sourceforge.net/DTD/sodipodi-0.dtd"
   xmlns:inkscape="http://www.inkscape.org/namespaces/inkscape"
   width="64"
   height="64"
   viewBox="0 0 64 64"
   version="1.1"
   id="svg217"
   sodipodi:docname="com.github.liljebergxyz.valawarden.svg"
   inkscape:export-filename="/home/daniel/dev/valawarden/data/images/com.github.liljebergxyz.valawarden.png"
   inkscape:export-xdpi="384"
   inkscape:export-ydpi="384"
   inkscape:version="0.92.3 (2405546, 2018-03-11)">
  <metadata
     id="metadata223">
    <rdf:RDF>
      <cc:Work
         rdf:about="">
        <dc:format>image/svg+xml</dc:format>
        <dc:type
           rdf:resource="http://purl.org/dc/dcmitype/StillImage" />
        <dc:title />
      </cc:Work>
    </rdf:RDF>
  </metadata>
  <defs
     id="defs221">
    <linearGradient
       gradientTransform="matrix(0.86450197,0,0,0.86450197,-128.45526,-192.47724)"
       id="linearGradient904"
       gradientUnits="userSpaceOnUse"
       x1="170.8779"
       y1="276.83011"
       x2="274.17191"
       y2="276.83011">
      <stop
         offset="0"
         style="stop-color:#3c8dbc;stop-opacity:1"
         id="stop900" />
      <stop
         offset="1"
         style="stop-color:#3c77bc;stop-opacity:1"
         id="stop902" />
    </linearGradient>
    <linearGradient
       gradientTransform="matrix(0.86450197,0,0,0.86450197,-128.45526,-192.47724)"
       id="linearGradient898"
       gradientUnits="userSpaceOnUse"
       x1="170.8779"
       y1="276.83011"
       x2="274.17191"
       y2="276.83011">
      <stop
         offset="0"
         style="stop-color:#1875bc;stop-opacity:1"
         id="stop894" />
      <stop
         offset="1"
         style="stop-color:#2a7cbc;stop-opacity:1"
         id="stop896" />
    </linearGradient>
    <linearGradient
       y2="276.83011"
       x2="274.17191"
       y1="276.83011"
       x1="170.8779"
       gradientUnits="userSpaceOnUse"
       id="linearGradient882"
       gradientTransform="matrix(0.86450197,0,0,0.86450197,-128.45526,-192.47724)">
      <stop
         id="stop878"
         style="stop-color:#3c8dbc;stop-opacity:1"
         offset="0" />
      <stop
         id="stop880"
         style="stop-color:#3c8dbc;stop-opacity:1"
         offset="1" />
    </linearGradient>
    <linearGradient
       id="linearGradient3770">
      <stop
         id="stop3766"
         offset="0"
         style="stop-opacity:0.19607843;stop-color:#ffffff" />
      <stop
         style="stop-color:#ffffff;stop-opacity:0"
         offset="0.06666666"
         id="stop3796" />
      <stop
         id="stop3798"
         offset="0.95208335"
         style="stop-color:#ffffff;stop-opacity:0.23529412" />
      <stop
         id="stop3768"
         stop-opacity="0"
         offset="1"
         style="stop-color:#ffffff;stop-opacity:0" />
    </linearGradient>
    <linearGradient
       y2="276.83011"
       x2="274.17191"
       y1="276.83011"
       x1="170.8779"
       gradientUnits="userSpaceOnUse"
       id="linearGradient3746"
       gradientTransform="matrix(0.86450197,0,0,0.86450197,-128.45526,-192.47724)">
      <stop
         id="stop3742"
         style="stop-color:#444995;stop-opacity:1"
         offset="0" />
      <stop
         id="stop3744"
         style="stop-color:#0f4e9d;stop-opacity:1"
         offset="1" />
    </linearGradient>
    <radialGradient
       cx="4.993"
       cy="43.5"
       r="2.5"
       fx="4.993"
       fy="43.5"
       id="h"
       xlink:href="#b"
       gradientUnits="userSpaceOnUse"
       gradientTransform="matrix(2.00378,0,0,1.4,27.988,-17.4)" />
    <linearGradient
       id="b">
      <stop
         offset="0"
         stop-color="#181818"
         id="stop5614" />
      <stop
         offset="1"
         stop-color="#181818"
         stop-opacity="0"
         id="stop5616" />
    </linearGradient>
    <radialGradient
       cx="4.993"
       cy="43.5"
       r="2.5"
       fx="4.993"
       fy="43.5"
       id="i"
       xlink:href="#b"
       gradientUnits="userSpaceOnUse"
       gradientTransform="matrix(2.00378,0,0,1.4,-48.012,-104.4)" />
    <radialGradient
       gradientUnits="userSpaceOnUse"
       gradientTransform="matrix(0.84871855,0,0,0.05803049,5.0098347,56.922188)"
       r="28"
       fy="59.5"
       fx="32"
       cy="59.5"
       cx="32"
       id="g"
       xlink:href="#f" />
    <linearGradient
       id="f">
      <stop
         offset="0"
         id="stop5588" />
      <stop
         offset="1"
         stop-opacity="0"
         id="stop5590" />
    </linearGradient>
    <linearGradient
       gradientTransform="matrix(0.86450197,0,0,0.86450197,-128.45526,-192.47724)"
       id="SVGID_3_"
       gradientUnits="userSpaceOnUse"
       x1="186.6152"
       y1="326.5459"
       x2="258.12891"
       y2="326.5459">
      <stop
         offset="0"
         style="stop-color:#534998"
         id="stop16" />
      <stop
         offset="1"
         style="stop-color:#384E9D"
         id="stop18" />
    </linearGradient>
    <linearGradient
       gradientTransform="matrix(0.86450197,0,0,0.86450197,-128.45526,-192.47724)"
       id="SVGID_2_"
       gradientUnits="userSpaceOnUse"
       x1="205.3662"
       y1="271.00729"
       x2="239.30659"
       y2="271.00729">
      <stop
         offset="0"
         style="stop-color:#534998"
         id="stop9" />
      <stop
         offset="1"
         style="stop-color:#384E9D"
         id="stop11" />
    </linearGradient>
    <linearGradient
       gradientTransform="matrix(0.86450197,0,0,0.86450197,-128.45526,-192.47724)"
       id="SVGID_1_-3"
       gradientUnits="userSpaceOnUse"
       x1="170.8779"
       y1="276.83011"
       x2="274.17191"
       y2="276.83011">
      <stop
         offset="0"
         style="stop-color:#534998"
         id="stop2" />
      <stop
         offset="1"
         style="stop-color:#384E9D"
         id="stop4" />
    </linearGradient>
    <linearGradient
       inkscape:collect="always"
       xlink:href="#linearGradient898"
       id="linearGradient3735"
       x1="48.651814"
       y1="41.809288"
       x2="78.858383"
       y2="41.809288"
       gradientUnits="userSpaceOnUse"
       gradientTransform="matrix(0.54163235,0,0,0.54163235,-2.5525963,60.462817)" />
    <linearGradient
       inkscape:collect="always"
       xlink:href="#linearGradient3746"
       id="linearGradient3810"
       x1="18.836754"
       y1="47.225349"
       x2="108.9992"
       y2="47.225349"
       gradientUnits="userSpaceOnUse"
       gradientTransform="matrix(0.54163235,0,0,0.54163235,-2.5525963,60.462817)" />
    <linearGradient
       inkscape:collect="always"
       xlink:href="#linearGradient898"
       id="linearGradient3834"
       x1="32.427944"
       y1="89.8368"
       x2="95.142555"
       y2="89.8368"
       gradientUnits="userSpaceOnUse"
       gradientTransform="matrix(0.54163235,0,0,0.54163235,-2.5525963,60.462817)" />
    <linearGradient
       inkscape:collect="always"
       xlink:href="#linearGradient898"
       id="linearGradient3850"
       gradientUnits="userSpaceOnUse"
       x1="62"
       y1="84"
       x2="62"
       y2="10"
       gradientTransform="matrix(0.54163235,0,0,0.54163235,-2.5525963,60.462817)" />
    <linearGradient
       inkscape:collect="always"
       xlink:href="#linearGradient3770"
       id="linearGradient3855"
       gradientUnits="userSpaceOnUse"
       x1="18.836754"
       y1="47.225349"
       x2="108.9992"
       y2="47.225349" />
    <linearGradient
       inkscape:collect="always"
       xlink:href="#linearGradient3770"
       id="linearGradient3860"
       gradientUnits="userSpaceOnUse"
       x1="32.427944"
       y1="89.8368"
       x2="95.142555"
       y2="89.8368" />
    <linearGradient
       inkscape:collect="always"
       xlink:href="#linearGradient3770"
       id="linearGradient3889"
       gradientUnits="userSpaceOnUse"
       x1="48.651814"
       y1="41.809288"
       x2="78.858383"
       y2="41.809288" />
    <clipPath
       clipPathUnits="userSpaceOnUse"
       id="clipPath7615">
      <path
         id="path7617"
         d="M 108.30419,30.11733 C 96.466556,18.279705 80.542429,11.43717 63.802213,11.43717 c -16.740218,0 -32.434386,7.132142 -44.272012,18.969768 -1.320959,17.928044 2.444812,36.123217 9.628822,51.427497 C 32.695701,70.668527 41.493738,61.819483 52.63544,58.22402 47.380132,54.651898 43.920395,48.626319 43.920395,41.808856 c 0,-10.936816 8.897455,-19.834269 19.83427,-19.834269 10.93595,0 19.83427,8.897453 19.83427,19.834269 0,6.818327 -3.459739,12.843042 -8.715046,16.415164 11.278294,3.639554 20.158458,12.661496 23.605229,24.023647 C 105.80145,66.757518 109.6407,48.268415 108.30419,30.11733 Z"
         style="display:inline;fill:url(#linearGradient7619);stroke-width:0.86450201"
         inkscape:connector-curvature="0" />
    </clipPath>
    <linearGradient
       inkscape:collect="always"
       xlink:href="#SVGID_1_-3"
       id="linearGradient7619"
       gradientUnits="userSpaceOnUse"
       gradientTransform="matrix(0.86450197,0,0,0.86450197,-128.45526,-192.47724)"
       x1="170.8779"
       y1="276.83011"
       x2="274.17191"
       y2="276.83011" />
    <clipPath
       clipPathUnits="userSpaceOnUse"
       id="clipPath7626">
      <path
         id="path7628"
         d="m 63.760715,56.48032 c 8.086553,-0.0035 14.665415,-6.582318 14.665415,-14.6706 0,-8.089144 -6.581455,-14.671464 -14.670602,-14.671464 -8.089144,0 -14.671462,6.581455 -14.671462,14.671464 0,8.087416 6.578861,14.667142 14.666276,14.6706 8.65e-4,0 0.0026,0 0.0043,0 0.0026,0 0.0035,0 0.006,0 z"
         style="display:inline;fill:url(#linearGradient7630);stroke-width:0.86450201"
         inkscape:connector-curvature="0" />
    </clipPath>
    <linearGradient
       inkscape:collect="always"
       xlink:href="#SVGID_2_"
       id="linearGradient7630"
       gradientUnits="userSpaceOnUse"
       gradientTransform="matrix(0.86450197,0,0,0.86450197,-128.45526,-192.47724)"
       x1="205.3662"
       y1="271.00729"
       x2="239.30659"
       y2="271.00729" />
    <clipPath
       clipPathUnits="userSpaceOnUse"
       id="clipPath7637">
      <path
         id="path7639"
         d="m 63.758987,61.64399 c -8.64e-4,0 -0.0017,0 -0.0035,0 -0.0017,0 -0.0026,0 -0.0035,0 C 47.879686,61.64569 34.754816,73.593137 32.874524,88.965712 40.81665,102.74242 51.687763,113.36628 64,118 76.130876,113.43372 86.82563,102.99745 94.697786,89.45329 93.039671,73.845571 79.798958,61.645719 63.758987,61.64399 Z m 2.947087,27.722851 1.958097,14.351609 h -9.491367 l 1.765313,-14.443246 c -2.37911,-1.120395 -4.029444,-3.53322 -4.029444,-6.336801 0,-3.872103 3.138142,-7.009383 7.009383,-7.009383 3.871239,0 7.009383,3.13728 7.009383,7.009383 0,2.877928 -1.737649,5.349538 -4.221365,6.428438 z"
         style="display:inline;fill:url(#linearGradient7641);stroke-width:0.86450201"
         inkscape:connector-curvature="0" />
    </clipPath>
    <linearGradient
       inkscape:collect="always"
       xlink:href="#SVGID_3_"
       id="linearGradient7641"
       gradientUnits="userSpaceOnUse"
       gradientTransform="matrix(0.86450197,0,0,0.86450197,-128.45526,-192.47724)"
       x1="186.6152"
       y1="326.5459"
       x2="258.12891"
       y2="326.5459" />
    <linearGradient
       inkscape:collect="always"
       xlink:href="#linearGradient904"
       id="linearGradient876"
       gradientUnits="userSpaceOnUse"
       gradientTransform="matrix(0.46824224,0,0,0.46824224,-72.128119,-43.789082)"
       x1="222.61981"
       y1="236.52606"
       x2="222.61981"
       y2="317.49753" />
    <linearGradient
       inkscape:collect="always"
       xlink:href="#linearGradient904"
       id="linearGradient884"
       gradientUnits="userSpaceOnUse"
       gradientTransform="matrix(0.46824224,0,0,0.46824224,-72.128119,-43.789082)"
       x1="222.34102"
       y1="293.95102"
       x2="222.61981"
       y2="359.14001" />
    <linearGradient
       inkscape:collect="always"
       xlink:href="#linearGradient882"
       id="linearGradient886"
       gradientUnits="userSpaceOnUse"
       gradientTransform="matrix(0.46824224,0,0,0.46824224,-72.128119,-43.789082)"
       x1="222.34302"
       y1="287.97803"
       x2="222.61981"
       y2="255.03381" />
    <radialGradient
       inkscape:collect="always"
       xlink:href="#f"
       id="radialGradient1416"
       cx="24"
       cy="30"
       fx="24"
       fy="30"
       r="2.5"
       gradientTransform="matrix(2.2921778,0,0,0.8219475,-22.907618,12.913273)"
       gradientUnits="userSpaceOnUse" />
    <radialGradient
       inkscape:collect="always"
       xlink:href="#f"
       id="radialGradient1416-6"
       cx="24"
       cy="30"
       fx="24"
       fy="30"
       r="2.5"
       gradientTransform="matrix(2.6325316,0,0,0.8219475,-31.22073,1.4261105)"
       gradientUnits="userSpaceOnUse" />
  </defs>
  <sodipodi:namedview
     pagecolor="#ffffff"
     bordercolor="#666666"
     borderopacity="1"
     objecttolerance="10"
     gridtolerance="10"
     guidetolerance="10"
     inkscape:pageopacity="0"
     inkscape:pageshadow="2"
     inkscape:window-width="1720"
     inkscape:window-height="1377"
     id="namedview219"
     showgrid="true"
     inkscape:zoom="32"
     inkscape:cx="12.09541"
     inkscape:cy="13.013736"
     inkscape:window-x="0"
     inkscape:window-y="30"
     inkscape:window-maximized="0"
     inkscape:current-layer="svg217"
     showguides="true"
     inkscape:lockguides="true"
     inkscape:pagecheckerboard="false">
    <inkscape:grid
       type="xygrid"
       id="grid5325"
       empspacing="4" />
    <inkscape:grid
       type="xygrid"
       id="grid5327"
       color="#ffef3f"
       opacity="0.2745098"
       empspacing="2"
       empcolor="#ffef3f"
       empopacity="0.2745098"
       spacingx="0.5"
       spacingy="0.5"
       dotted="true" />
  </sodipodi:namedview>
  <ellipse
     style="display:inline;opacity:0.23500001;vector-effect:none;fill:url(#radialGradient1416-6);fill-opacity:1;stroke:none;stroke-width:3.04224777;stroke-linecap:round;stroke-linejoin:round;stroke-miterlimit:4;stroke-dasharray:none;stroke-dashoffset:0;stroke-opacity:1;paint-order:normal"
     id="path1408-1"
     cx="31.960024"
     cy="26.084539"
     rx="7.8302784"
     ry="4.751884" />
  <ellipse
     style="display:inline;opacity:0.23500001;vector-effect:none;fill:url(#radialGradient1416);fill-opacity:1;stroke:none;stroke-width:2.8387816;stroke-linecap:round;stroke-linejoin:round;stroke-miterlimit:4;stroke-dasharray:none;stroke-dashoffset:0;stroke-opacity:1;paint-order:normal"
     id="path1408"
     cx="32.104649"
     cy="37.571701"
     rx="6.8179202"
     ry="4.751884" />
  <ellipse
     style="opacity:0.1;fill:url(#g);stroke-width:0.67800695"
     ry="1.6248971"
     rx="23.76412"
     cy="60.375103"
     cx="32.168831"
     id="ellipse5630" />
  <g
     transform="matrix(0.54163235,0,0,0.54163235,14.777139,27.877154)"
     style="opacity:0.4"
     id="g5636">
    <path
       style="fill:url(#h)"
       inkscape:connector-curvature="0"
       d="m 38,40 h 5 v 7 h -5 z"
       transform="matrix(1.57895,0,0,0.71429,-28,28.429)"
       id="path5632" />
    <path
       style="fill:url(#i)"
       inkscape:connector-curvature="0"
       transform="matrix(-1.57895,0,0,-0.71429,-28,28.429)"
       d="m -38,-47 h 5 v 7 h -5 z"
       id="path5634" />
  </g>
  <g
     inkscape:groupmode="layer"
     id="layer1"
     inkscape:label="Org"
     style="display:inline"
     transform="translate(0,-64)">
    <path
       inkscape:connector-curvature="0"
       style="fill:url(#linearGradient876);stroke-width:0.46824229"
       d="M 56.108461,76.775338 C 49.696815,70.363697 41.071791,66.657559 32.004748,66.657559 c -9.067044,0 -17.567513,3.862999 -23.9791543,10.27464 -0.715474,9.710409 1.324189,19.565503 5.2152813,27.854801 1.91558,-6.047824 6.680881,-10.84075 12.715588,-12.788169 -2.846445,-1.934777 -4.720351,-5.198426 -4.720351,-8.890984 0,-5.923734 4.81915,-10.742882 10.742883,-10.742882 5.923264,0 10.742882,4.819148 10.742882,10.742882 0,3.693026 -1.873906,6.956207 -4.720351,8.890984 6.108689,1.9713 10.918474,6.857875 12.785355,13.011989 3.966015,-8.389971 6.045475,-18.404267 5.32158,-28.235482 z"
       id="path7" />
    <path
       inkscape:connector-curvature="0"
       style="fill:url(#linearGradient884);fill-opacity:1;stroke-width:0.46824229"
       d="m 31.981336,93.851197 c -4.63e-4,0 -9.5e-4,0 -0.0019,0 -9.5e-4,0 -0.0014,0 -0.0019,0 -8.596952,9.5e-4 -15.705807,6.472053 -16.724233,14.798333 4.301712,7.46191 10.189858,13.21614 16.858565,15.72591 6.570483,-2.47324 12.363108,-8.12587 16.626922,-15.46182 -0.898088,-8.45365 -8.069687,-15.061486 -16.757454,-15.062423 z m 1.596237,15.015603 1.060569,7.77329 H 29.49731 l 0.956151,-7.82293 c -1.288603,-0.60684 -2.182477,-1.9137 -2.182477,-3.43222 0,-2.09725 1.699719,-3.7965 3.796508,-3.7965 2.096789,0 3.796509,1.69925 3.796509,3.7965 0,1.55878 -0.941167,2.89749 -2.286428,3.48186 z"
       id="path21" />
    <path
       inkscape:connector-curvature="0"
       style="fill:url(#linearGradient886);fill-opacity:1;stroke-width:0.46824229"
       d="m 31.982272,91.054386 c 4.379938,-0.0019 7.943263,-3.565196 7.943263,-7.946072 0,-4.381342 -3.564729,-7.946539 -7.946073,-7.946539 -4.381342,0 -7.946538,3.564729 -7.946538,7.946539 0,4.380407 3.563323,7.944199 7.943729,7.946072 4.63e-4,0 0.0014,0 0.0023,0 0.0014,0 0.0019,0 0.0033,0 z"
       id="path14" />
  </g>
  <g
     inkscape:groupmode="layer"
     id="layer3"
     inkscape:label="InnerGlow"
     style="display:inline"
     transform="translate(0,-64)">
    <a
       id="a3894"
       clip-path="url(#clipPath7615)"
       transform="matrix(0.54163235,0,0,0.54163235,-2.5525953,60.462817)">
      <path
         id="path3852"
         d="M 108.30419,30.11733 C 96.466556,18.279705 80.542429,11.43717 63.802213,11.43717 c -16.740218,0 -32.434386,7.132142 -44.272012,18.969768 -1.320959,17.928044 2.444812,36.123217 9.628822,51.427497 C 32.695701,70.668527 41.493738,61.819483 52.63544,58.22402 47.380132,54.651898 43.920395,48.626319 43.920395,41.808856 c 0,-10.936816 8.897455,-19.834269 19.83427,-19.834269 10.93595,0 19.83427,8.897453 19.83427,19.834269 0,6.818327 -3.459739,12.843042 -8.715046,16.415164 11.278294,3.639554 20.158458,12.661496 23.605229,24.023647 C 105.80145,66.757518 109.6407,48.268415 108.30419,30.11733 Z"
         style="display:inline;fill:none;fill-opacity:1;stroke:url(#linearGradient3855);stroke-width:1.73000002;stroke-miterlimit:4;stroke-dasharray:none;stroke-opacity:1"
         inkscape:connector-curvature="0" />
    </a>
    <path
       inkscape:connector-curvature="0"
       style="display:inline;fill:none;fill-opacity:1;stroke:url(#linearGradient3810);stroke-width:0.46824229;stroke-opacity:1"
       d="M 56.108461,76.775338 C 49.696815,70.363697 41.071791,66.657559 32.004748,66.657559 c -9.067044,0 -17.567513,3.862999 -23.9791543,10.27464 -0.715474,9.710409 1.324189,19.565503 5.2152813,27.854801 1.91558,-6.047824 6.680881,-10.84075 12.715588,-12.788169 -2.846445,-1.934777 -4.720351,-5.198426 -4.720351,-8.890984 0,-5.923734 4.81915,-10.742882 10.742883,-10.742882 5.923264,0 10.742882,4.819148 10.742882,10.742882 0,3.693026 -1.873906,6.956207 -4.720351,8.890984 6.108689,1.9713 10.918474,6.857875 12.785355,13.011989 3.966015,-8.389971 6.045475,-18.404267 5.32158,-28.235482 z"
       id="path3748" />
    <path
       inkscape:connector-curvature="0"
       style="display:inline;fill:none;stroke:url(#linearGradient3860);stroke-width:1.73000002;stroke-miterlimit:4;stroke-dasharray:none;stroke-opacity:1"
       d="m 63.758987,61.64399 c -8.64e-4,0 -0.0017,0 -0.0035,0 -0.0017,0 -0.0026,0 -0.0035,0 C 47.879686,61.64569 34.754816,73.593137 32.874524,88.965712 40.81665,102.74242 51.687763,113.36628 64,118 76.130876,113.43372 86.82563,102.99745 94.697786,89.45329 93.039671,73.845571 79.798958,61.645719 63.758987,61.64399 Z m 2.947087,27.722851 1.958097,14.351609 h -9.491367 l 1.765313,-14.443246 c -2.37911,-1.120395 -4.029444,-3.53322 -4.029444,-6.336801 0,-3.872103 3.138142,-7.009383 7.009383,-7.009383 3.871239,0 7.009383,3.13728 7.009383,7.009383 0,2.877928 -1.737649,5.349538 -4.221365,6.428438 z"
       id="path3857"
       clip-path="url(#clipPath7637)"
       transform="matrix(0.54163235,0,0,0.54163235,-2.5525953,60.462817)" />
    <path
       inkscape:connector-curvature="0"
       style="display:inline;fill:none;stroke:url(#linearGradient3889);stroke-width:1.73000002;stroke-miterlimit:4;stroke-dasharray:none;stroke-opacity:1"
       d="m 63.760715,56.48032 c 8.086553,-0.0035 14.665415,-6.582318 14.665415,-14.6706 0,-8.089144 -6.581455,-14.671464 -14.670602,-14.671464 -8.089144,0 -14.671462,6.581455 -14.671462,14.671464 0,8.087416 6.578861,14.667142 14.666276,14.6706 8.65e-4,0 0.0026,0 0.0043,0 0.0026,0 0.0035,0 0.006,0 z"
       id="path3886"
       clip-path="url(#clipPath7626)"
       transform="matrix(0.54163235,0,0,0.54163235,-2.5525953,60.462817)" />
  </g>
  <g
     inkscape:groupmode="layer"
     id="layer2"
     inkscape:label="Stroke"
     style="display:inline"
     transform="translate(0,-64)">
    <path
       id="path3717"
       d="M 56.108461,76.775338 C 49.696815,70.363697 41.071791,66.657559 32.004748,66.657559 c -9.067044,0 -17.567513,3.862999 -23.9791543,10.27464 -0.715474,9.710409 1.324189,19.565503 5.2152813,27.854801 1.91558,-6.047824 6.680881,-10.84075 12.715588,-12.788169 -2.846445,-1.934777 -4.720351,-5.198426 -4.720351,-8.890984 0,-5.923734 4.81915,-10.742882 10.742883,-10.742882 5.923264,0 10.742882,4.819148 10.742882,10.742882 0,3.693026 -1.873906,6.956207 -4.720351,8.890984 6.108689,1.9713 10.918474,6.857875 12.785355,13.011989 3.966015,-8.389971 6.045475,-18.404267 5.32158,-28.235482 z"
       style="fill:none;fill-opacity:1;stroke:url(#linearGradient3850);stroke-width:0.46824229;stroke-opacity:1"
       inkscape:connector-curvature="0" />
    <path
       id="path3719"
       d="m 31.981336,93.851197 c -4.63e-4,0 -9.5e-4,0 -0.0019,0 -9.5e-4,0 -0.0014,0 -0.0019,0 -8.596952,9.5e-4 -15.705807,6.472053 -16.724233,14.798333 4.301712,7.46191 10.189858,13.21614 16.858565,15.72591 6.570483,-2.47324 12.363108,-8.12587 16.626922,-15.46182 -0.898088,-8.45365 -8.069687,-15.061486 -16.757454,-15.062423 z m 1.596237,15.015603 1.060569,7.77329 H 29.49731 l 0.956151,-7.82293 c -1.288603,-0.60684 -2.182477,-1.9137 -2.182477,-3.43222 0,-2.09725 1.699719,-3.7965 3.796508,-3.7965 2.096789,0 3.796509,1.69925 3.796509,3.7965 0,1.55878 -0.941167,2.89749 -2.286428,3.48186 z"
       style="fill:none;stroke:url(#linearGradient3834);stroke-width:0.46824229;stroke-opacity:1"
       inkscape:connector-curvature="0" />
    <path
       id="path3726"
       d="m 31.982272,91.054386 c 4.379938,-0.0019 7.943263,-3.565196 7.943263,-7.946072 0,-4.381342 -3.564729,-7.946539 -7.946073,-7.946539 -4.381342,0 -7.946538,3.564729 -7.946538,7.946539 0,4.380407 3.563323,7.944199 7.943729,7.946072 4.63e-4,0 0.0014,0 0.0023,0 0.0014,0 0.0019,0 0.0033,0 z"
       style="display:inline;fill:none;stroke:url(#linearGradient3735);stroke-width:0.46824229;stroke-opacity:1"
       inkscape:connector-curvature="0" />
  </g>
</svg>
