<?xml version="1.0" encoding="UTF-8" standalone="no"?>
<svg
   xmlns:dc="http://purl.org/dc/elements/1.1/"
   xmlns:cc="http://creativecommons.org/ns#"
   xmlns:rdf="http://www.w3.org/1999/02/22-rdf-syntax-ns#"
   xmlns:svg="http://www.w3.org/2000/svg"
   xmlns="http://www.w3.org/2000/svg"
   xmlns:xlink="http://www.w3.org/1999/xlink"
   xmlns:sodipodi="http://sodipodi.sourceforge.net/DTD/sodipodi-0.dtd"
   xmlns:inkscape="http://www.inkscape.org/namespaces/inkscape"
   width="64"
   height="64"
   viewBox="0 0 64 64"
   version="1.1"
   id="svg217"
   sodipodi:docname="shield-64.svg"
   inkscape:export-filename="/home/daniel/dev/icons/shield.svg.png"
   inkscape:export-xdpi="96"
   inkscape:export-ydpi="96"
   inkscape:version="0.92.3 (2405546, 2018-03-11)">
  <metadata
     id="metadata223">
    <rdf:RDF>
      <cc:Work
         rdf:about="">
        <dc:format>image/svg+xml</dc:format>
        <dc:type
           rdf:resource="http://purl.org/dc/dcmitype/StillImage" />
        <dc:title></dc:title>
      </cc:Work>
    </rdf:RDF>
  </metadata>
  <defs
     id="defs221">
    <linearGradient
       id="linearGradient7072"
       inkscape:collect="always">
      <stop
         id="stop7068"
         offset="0"
         style="stop-color:#3c8dbc;stop-opacity:1" />
      <stop
         id="stop7070"
         offset="1"
         style="stop-color:#3c75bc;stop-opacity:1" />
    </linearGradient>
    <linearGradient
       id="linearGradient5421"
       inkscape:collect="always">
      <stop
         id="stop5417"
         offset="0"
         style="stop-color:#ffffff;stop-opacity:1" />
      <stop
         style="stop-color:#ffffff;stop-opacity:0.23529412"
         offset="0.03773585"
         id="stop5441" />
      <stop
         id="stop5453"
         offset="0.96217406"
         style="stop-color:#ffffff;stop-opacity:0.15686275" />
      <stop
         id="stop5419"
         offset="1"
         style="stop-color:#ffffff;stop-opacity:0.39215687" />
    </linearGradient>
    <linearGradient
       inkscape:collect="always"
       id="linearGradient5317-0">
      <stop
         style="stop-color:#8cd5ff;stop-opacity:1"
         offset="0"
         id="stop5313" />
      <stop
         style="stop-color:#3689e6;stop-opacity:1"
         offset="1"
         id="stop5315" />
    </linearGradient>
    <linearGradient
       inkscape:collect="always"
       xlink:href="#linearGradient7072"
       id="linearGradient5319"
       x1="1536"
       y1="128.20189"
       x2="1536"
       y2="1661.1135"
       gradientUnits="userSpaceOnUse"
       gradientTransform="matrix(0.03437395,0,0,0.03437395,2.209217,2.5959826)" />
    <linearGradient
       inkscape:collect="always"
       xlink:href="#linearGradient5317-0"
       id="linearGradient5319-3"
       x1="1536"
       y1="128.20189"
       x2="1536"
       y2="1661.1135"
       gradientUnits="userSpaceOnUse"
       gradientTransform="matrix(0.06874791,0,0,0.06874791,-17.599465,-8.7997302)" />
    <linearGradient
       inkscape:collect="always"
       xlink:href="#linearGradient5421"
       id="linearGradient5410"
       x1="64.007195"
       y1="9.4390574"
       x2="64.007195"
       y2="119.00778"
       gradientUnits="userSpaceOnUse"
       gradientTransform="matrix(0.48862937,0,0,0.49055969,1.726465,1.6195946)" />
    <radialGradient
       cx="4.993"
       cy="43.5"
       r="2.5"
       fx="4.993"
       fy="43.5"
       id="h"
       xlink:href="#b"
       gradientUnits="userSpaceOnUse"
       gradientTransform="matrix(2.00378,0,0,1.4,27.988,-17.4)" />
    <linearGradient
       id="b">
      <stop
         offset="0"
         stop-color="#181818"
         id="stop5614" />
      <stop
         offset="1"
         stop-color="#181818"
         stop-opacity="0"
         id="stop5616" />
    </linearGradient>
    <radialGradient
       cx="4.993"
       cy="43.5"
       r="2.5"
       fx="4.993"
       fy="43.5"
       id="i"
       xlink:href="#b"
       gradientUnits="userSpaceOnUse"
       gradientTransform="matrix(2.00378,0,0,1.4,-48.012,-104.4)" />
    <radialGradient
       gradientUnits="userSpaceOnUse"
       gradientTransform="matrix(0.78348215,0,0,0.05357,7.983406,56.812201)"
       r="28"
       fy="59.5"
       fx="32"
       cy="59.5"
       cx="32"
       id="g"
       xlink:href="#f" />
    <linearGradient
       id="f">
      <stop
         offset="0"
         id="stop5588" />
      <stop
         offset="1"
         stop-opacity="0"
         id="stop5590" />
    </linearGradient>
  </defs>
  <sodipodi:namedview
     pagecolor="#ffffff"
     bordercolor="#666666"
     borderopacity="1"
     objecttolerance="10"
     gridtolerance="10"
     guidetolerance="10"
     inkscape:pageopacity="0"
     inkscape:pageshadow="2"
     inkscape:window-width="1720"
     inkscape:window-height="1377"
     id="namedview219"
     showgrid="true"
     inkscape:zoom="2"
     inkscape:cx="35.142299"
     inkscape:cy="22.18386"
     inkscape:window-x="0"
     inkscape:window-y="30"
     inkscape:window-maximized="0"
     inkscape:current-layer="svg217"
     showguides="false"
     inkscape:lockguides="true"
     inkscape:pagecheckerboard="false"
     borderlayer="false">
    <inkscape:grid
       type="xygrid"
       id="grid5325"
       empspacing="4" />
    <inkscape:grid
       type="xygrid"
       id="grid5327"
       color="#ffef3f"
       opacity="0.2745098"
       empspacing="2"
       empcolor="#ffef3f"
       empopacity="0.2745098"
       spacingx="0.5"
       spacingy="0.5"
       dotted="true" />
  </sodipodi:namedview>
  <ellipse
     style="opacity:0.1;fill:url(#g);stroke-width:0.62589222"
     ry="1.5"
     rx="21.9375"
     cy="59.999699"
     cx="33.054832"
     id="ellipse5630" />
  <g
     transform="matrix(0.5,0,0,0.5,16.99995,29.9997)"
     style="opacity:0.4"
     id="g5636">
    <path
       style="fill:url(#h)"
       inkscape:connector-curvature="0"
       d="m 38,40 h 5 v 7 h -5 z"
       transform="matrix(1.57895,0,0,0.71429,-28,28.429)"
       id="path5632" />
    <path
       style="fill:url(#i)"
       inkscape:connector-curvature="0"
       transform="matrix(-1.57895,0,0,-0.71429,-28,28.429)"
       d="m -38,-47 h 5 v 7 h -5 z"
       id="path5634" />
  </g>
  <path
     d="M 55.007609,9.1957776 V 35.594976 c 0,1.970771 -0.383845,3.924362 -1.15153,5.860759 -0.767685,1.936398 -1.71869,3.655097 -2.85303,5.156092 -1.134349,1.500997 -2.486385,2.961893 -4.056132,4.382681 -1.569745,1.420788 -3.019177,2.600963 -4.348306,3.540518 -1.329124,0.939545 -2.715539,1.82755 -4.159245,2.663975 -1.443706,0.83644 -2.469195,1.403605 -3.076468,1.701515 -0.607274,0.297905 -1.094241,0.527065 -1.460895,0.687485 -0.274993,0.137485 -0.572899,0.206235 -0.893723,0.206235 -0.320823,0 -0.61873,-0.06875 -0.893723,-0.206235 -0.366654,-0.16042 -0.853621,-0.38958 -1.460894,-0.687485 C 30.046389,58.602606 29.0209,58.035441 27.577194,57.199001 26.133488,56.362576 24.747073,55.474571 23.417949,54.535026 22.08882,53.595471 20.639387,52.415296 19.069642,50.994508 17.499899,49.57372 16.147858,48.112824 15.013515,46.611827 13.879176,45.110832 12.928163,43.392133 12.160478,41.455735 11.392793,39.519338 11.00895,37.565747 11.00895,35.594976 V 9.1957776 c 0,-0.595813 0.217703,-1.111421 0.653104,-1.546826 0.435404,-0.435405 0.951013,-0.653104 1.54683,-0.653104 h 39.598795 c 0.59581,0 1.11142,0.217699 1.54683,0.653104 0.4354,0.435405 0.6531,0.951013 0.6531,1.546826 z"
     id="path215"
     inkscape:connector-curvature="0"
     sodipodi:nodetypes="sssssssscscsssssssssssss"
     style="opacity:1;vector-effect:none;fill:url(#linearGradient5319);fill-opacity:1;stroke:none;stroke-width:0.03437396;stroke-linecap:butt;stroke-linejoin:miter;stroke-miterlimit:4;stroke-dasharray:none;stroke-dashoffset:0;stroke-opacity:1" />
  <path
     style="opacity:1;vector-effect:none;fill:none;fill-opacity:1;stroke:#3c80bc;stroke-width:0.5;stroke-linecap:butt;stroke-linejoin:miter;stroke-miterlimit:4;stroke-dasharray:none;stroke-dashoffset:0;stroke-opacity:1"
     sodipodi:nodetypes="sssssssscscsssssssssssss"
     inkscape:connector-curvature="0"
     id="path5390"
     d="M 55.007609,9.1957776 V 35.594976 c 0,1.970771 -0.383845,3.924362 -1.15153,5.860759 -0.767685,1.936398 -1.71869,3.655097 -2.85303,5.156092 -1.134349,1.500997 -2.486385,2.961893 -4.056132,4.382681 -1.569745,1.420788 -3.019177,2.600963 -4.348306,3.540518 -1.329124,0.939545 -2.715539,1.82755 -4.159245,2.663975 -1.443706,0.83644 -2.469195,1.403605 -3.076468,1.701515 -0.607274,0.297905 -1.094241,0.527065 -1.460895,0.687485 -0.274993,0.137485 -0.572899,0.206235 -0.893723,0.206235 -0.320823,0 -0.61873,-0.06875 -0.893723,-0.206235 -0.366654,-0.16042 -0.853621,-0.38958 -1.460894,-0.687485 C 30.046389,58.602606 29.0209,58.035441 27.577194,57.199001 26.133488,56.362576 24.747073,55.474571 23.417949,54.535026 22.08882,53.595471 20.639387,52.415296 19.069642,50.994508 17.499899,49.57372 16.147858,48.112824 15.013515,46.611827 13.879176,45.110832 12.928163,43.392133 12.160478,41.455735 11.392793,39.519338 11.00895,37.565747 11.00895,35.594976 V 9.1957776 c 0,-0.595813 0.217703,-1.111421 0.653104,-1.546826 0.435404,-0.435405 0.951013,-0.653104 1.54683,-0.653104 h 39.598795 c 0.59581,0 1.11142,0.217699 1.54683,0.653104 0.4354,0.435405 0.6531,0.951013 0.6531,1.546826 z" />
  <path
     id="path7066"
     d="m 27.84297,28.914863 h 10.324405 v -3.871652 q 0,-2.137475 -1.512362,-3.649839 -1.512366,-1.512364 -3.649841,-1.512364 -2.137475,0 -3.64984,1.512364 -1.512362,1.512364 -1.512362,3.649839 z m 16.77716,1.935826 v 11.614955 q 0,0.806594 -0.564618,1.371212 -0.564614,0.564614 -1.371208,0.564614 H 23.326041 q -0.806594,0 -1.371209,-0.564614 -0.564618,-0.564618 -0.564618,-1.371212 V 30.850689 q 0,-0.806594 0.564618,-1.37121 0.564615,-0.564616 1.371209,-0.564616 h 0.645276 v -3.871652 q 0,-3.710333 2.661762,-6.372094 2.661762,-2.661761 6.372093,-2.661761 3.710332,0 6.372094,2.661761 2.661761,2.661761 2.661761,6.372094 v 3.871652 h 0.645277 q 0.806594,0 1.371208,0.564616 0.564618,0.564616 0.564618,1.37121 z"
     inkscape:connector-curvature="0"
     style="opacity:0.22099998;fill:#0d52bf;fill-opacity:1;stroke:#3c8dbc;stroke-width:0.02016485;stroke-opacity:1" />
  <path
     style="opacity:1;vector-effect:none;fill:none;fill-opacity:1;stroke:url(#linearGradient5410);stroke-width:0.48959357;stroke-linecap:round;stroke-linejoin:round;stroke-miterlimit:4;stroke-dasharray:none;stroke-dashoffset:0;stroke-opacity:1"
     sodipodi:nodetypes="cssssssscscsssssssssssssc"
     inkscape:connector-curvature="0"
     id="path5402"
     d="m 54.520244,9.4772926 -0.0166,26.0840864 c -0.001,1.933562 -0.37512,3.850268 -1.12535,5.750104 -0.75022,1.899838 -1.6796,3.586086 -2.788145,5.058743 -1.108553,1.472656 -2.429842,2.905969 -3.963891,4.299931 -1.534047,1.393969 -2.950517,2.551854 -4.249419,3.473669 -1.298899,0.92181 -2.653786,1.793045 -4.064659,2.613685 -1.410874,0.82064 -2.413043,1.3771 -3.006506,1.669385 -0.593464,0.29228 -1.069356,0.517115 -1.427672,0.6745 -0.268739,0.134895 -0.559871,0.20235 -0.873398,0.20235 -0.313528,0 -0.60466,-0.06745 -0.8734,-0.20235 -0.358315,-0.157385 -0.834208,-0.38222 -1.427671,-0.6745 -0.593463,-0.292285 -1.595632,-0.848745 -3.006505,-1.669385 -1.410875,-0.82064 -2.765761,-1.691875 -4.06466,-2.613685 -1.298902,-0.921815 -2.715373,-2.0797 -4.24942,-3.473669 -1.53402,-1.393962 -2.855314,-2.827275 -3.96386,-4.299931 C 14.310545,44.897569 13.381159,43.211321 12.630932,41.311483 11.880705,39.411647 11.50805,37.49494 11.505591,35.561379 L 11.472446,9.5019176 c -7.5e-4,-0.584564 0.09122,-1.06034 0.516717,-1.487524 0.425504,-0.427184 0.857572,-0.545371 1.439839,-0.545006 l 39.292127,0.02463 c 0.584885,3.66e-4 0.91489,0.136976 1.340395,0.56416 0.4255,0.427184 0.45909,0.834555 0.45872,1.41912 z" />
  <path
     style="opacity:0.47099998;fill:#0d52bf;fill-opacity:1;stroke:#3c8dbc;stroke-width:0.02016485;stroke-opacity:1"
     inkscape:connector-curvature="0"
     d="m 27.84297,27.914863 h 10.324405 v -3.871652 q 0,-2.137475 -1.512362,-3.649839 -1.512366,-1.512364 -3.649841,-1.512364 -2.137475,0 -3.64984,1.512364 -1.512362,1.512364 -1.512362,3.649839 z m 16.77716,1.935826 v 11.614954 q 0,0.806595 -0.564618,1.371213 -0.564614,0.564614 -1.371208,0.564614 H 23.326041 q -0.806594,0 -1.371209,-0.564614 -0.564618,-0.564618 -0.564618,-1.371213 V 29.850689 q 0,-0.806594 0.564618,-1.37121 0.564615,-0.564616 1.371209,-0.564616 h 0.645276 v -3.871652 q 0,-3.710333 2.661762,-6.372094 2.661762,-2.661761 6.372093,-2.661761 3.710332,0 6.372094,2.661761 2.661761,2.661761 2.661761,6.372094 v 3.871652 h 0.645277 q 0.806594,0 1.371208,0.564616 0.564618,0.564616 0.564618,1.37121 z"
     id="path7064" />
  <path
     id="path6309"
     d="m 27.84297,26.914863 h 10.324405 v -3.871652 q 0,-2.137475 -1.512362,-3.649839 -1.512366,-1.512364 -3.649841,-1.512364 -2.137475,0 -3.64984,1.512364 -1.512362,1.512364 -1.512362,3.649839 z m 16.77716,1.935826 v 11.614954 q 0,0.806594 -0.564618,1.371212 -0.564614,0.564615 -1.371208,0.564615 H 23.326041 q -0.806594,0 -1.371209,-0.564615 -0.564618,-0.564618 -0.564618,-1.371212 V 28.850689 q 0,-0.806594 0.564618,-1.37121 0.564615,-0.564616 1.371209,-0.564616 h 0.645276 v -3.871652 q 0,-3.710333 2.661762,-6.372094 2.661762,-2.661761 6.372093,-2.661761 3.710332,0 6.372094,2.661761 2.661761,2.661761 2.661761,6.372094 v 3.871652 h 0.645277 q 0.806594,0 1.371208,0.564616 0.564618,0.564616 0.564618,1.37121 z"
     inkscape:connector-curvature="0"
     style="fill:#ffffff;fill-opacity:1;stroke-width:0.02016485" />
</svg>
