<?xml version="1.0" encoding="UTF-8" standalone="no"?>
<svg
   xmlns:dc="http://purl.org/dc/elements/1.1/"
   xmlns:cc="http://creativecommons.org/ns#"
   xmlns:rdf="http://www.w3.org/1999/02/22-rdf-syntax-ns#"
   xmlns:svg="http://www.w3.org/2000/svg"
   xmlns="http://www.w3.org/2000/svg"
   xmlns:xlink="http://www.w3.org/1999/xlink"
   xmlns:sodipodi="http://sodipodi.sourceforge.net/DTD/sodipodi-0.dtd"
   xmlns:inkscape="http://www.inkscape.org/namespaces/inkscape"
   width="128"
   height="128"
   viewBox="0 0 128 128"
   version="1.1"
   id="svg217"
   sodipodi:docname="shield.svg"
   inkscape:export-filename="/home/daniel/dev/icons/shield.svg.png"
   inkscape:export-xdpi="96"
   inkscape:export-ydpi="96"
   inkscape:version="0.92.3 (2405546, 2018-03-11)">
  <metadata
     id="metadata223">
    <rdf:RDF>
      <cc:Work
         rdf:about="">
        <dc:format>image/svg+xml</dc:format>
        <dc:type
           rdf:resource="http://purl.org/dc/dcmitype/StillImage" />
        <dc:title></dc:title>
      </cc:Work>
    </rdf:RDF>
  </metadata>
  <defs
     id="defs221">
    <linearGradient
       id="linearGradient7072"
       inkscape:collect="always">
      <stop
         id="stop7068"
         offset="0"
         style="stop-color:#3c8dbc;stop-opacity:1" />
      <stop
         id="stop7070"
         offset="1"
         style="stop-color:#3c75bc;stop-opacity:1" />
    </linearGradient>
    <linearGradient
       id="linearGradient5421"
       inkscape:collect="always">
      <stop
         id="stop5417"
         offset="0"
         style="stop-color:#ffffff;stop-opacity:1" />
      <stop
         style="stop-color:#ffffff;stop-opacity:0.23529412"
         offset="0.03773585"
         id="stop5441" />
      <stop
         id="stop5453"
         offset="0.96217406"
         style="stop-color:#ffffff;stop-opacity:0.15686275" />
      <stop
         id="stop5419"
         offset="1"
         style="stop-color:#ffffff;stop-opacity:0.39215687" />
    </linearGradient>
    <linearGradient
       inkscape:collect="always"
       id="linearGradient5317-0">
      <stop
         style="stop-color:#8cd5ff;stop-opacity:1"
         offset="0"
         id="stop5313" />
      <stop
         style="stop-color:#3689e6;stop-opacity:1"
         offset="1"
         id="stop5315" />
    </linearGradient>
    <linearGradient
       inkscape:collect="always"
       xlink:href="#linearGradient7072"
       id="linearGradient5319"
       x1="1536"
       y1="128.20189"
       x2="1536"
       y2="1661.1135"
       gradientUnits="userSpaceOnUse"
       gradientTransform="matrix(0.06874791,0,0,0.06874791,2.413916,3.1919348)" />
    <linearGradient
       inkscape:collect="always"
       xlink:href="#linearGradient5317-0"
       id="linearGradient5319-3"
       x1="1536"
       y1="128.20189"
       x2="1536"
       y2="1661.1135"
       gradientUnits="userSpaceOnUse"
       gradientTransform="matrix(0.06874791,0,0,0.06874791,-17.599465,-8.7997302)" />
    <linearGradient
       inkscape:collect="always"
       xlink:href="#linearGradient5421"
       id="linearGradient5410"
       x1="64.007195"
       y1="9.4390574"
       x2="64.007195"
       y2="119.00778"
       gradientUnits="userSpaceOnUse"
       gradientTransform="matrix(0.97725873,0,0,0.98111937,1.4484121,1.2391577)" />
    <radialGradient
       cx="4.993"
       cy="43.5"
       r="2.5"
       fx="4.993"
       fy="43.5"
       id="h"
       xlink:href="#b"
       gradientUnits="userSpaceOnUse"
       gradientTransform="matrix(2.00378,0,0,1.4,27.988,-17.4)" />
    <linearGradient
       id="b">
      <stop
         offset="0"
         stop-color="#181818"
         id="stop5614" />
      <stop
         offset="1"
         stop-color="#181818"
         stop-opacity="0"
         id="stop5616" />
    </linearGradient>
    <radialGradient
       cx="4.993"
       cy="43.5"
       r="2.5"
       fx="4.993"
       fy="43.5"
       id="i"
       xlink:href="#b"
       gradientUnits="userSpaceOnUse"
       gradientTransform="matrix(2.00378,0,0,1.4,-48.012,-104.4)" />
    <radialGradient
       gradientUnits="userSpaceOnUse"
       gradientTransform="matrix(1.5669643,0,0,0.10714,13.962294,111.62437)"
       r="28"
       fy="59.5"
       fx="32"
       cy="59.5"
       cx="32"
       id="g"
       xlink:href="#f" />
    <linearGradient
       id="f">
      <stop
         offset="0"
         id="stop5588" />
      <stop
         offset="1"
         stop-opacity="0"
         id="stop5590" />
    </linearGradient>
  </defs>
  <sodipodi:namedview
     pagecolor="#ffffff"
     bordercolor="#666666"
     borderopacity="1"
     objecttolerance="10"
     gridtolerance="10"
     guidetolerance="10"
     inkscape:pageopacity="0"
     inkscape:pageshadow="2"
     inkscape:window-width="1720"
     inkscape:window-height="1377"
     id="namedview219"
     showgrid="true"
     inkscape:zoom="2"
     inkscape:cx="93.793877"
     inkscape:cy="56.335546"
     inkscape:window-x="0"
     inkscape:window-y="30"
     inkscape:window-maximized="0"
     inkscape:current-layer="svg217"
     showguides="false"
     inkscape:lockguides="true">
    <inkscape:grid
       type="xygrid"
       id="grid5325"
       empspacing="4" />
    <inkscape:grid
       type="xygrid"
       id="grid5327"
       color="#ffef3f"
       opacity="0.2745098"
       empspacing="2"
       empcolor="#ffef3f"
       empopacity="0.2745098"
       spacingx="0.5"
       spacingy="0.5"
       dotted="true" />
  </sodipodi:namedview>
  <ellipse
     style="opacity:0.1;fill:url(#g);stroke-width:1.25178444"
     ry="3"
     rx="43.875"
     cy="117.99937"
     cx="64.105148"
     id="ellipse5630" />
  <g
     transform="translate(31.995382,57.99937)"
     style="opacity:0.4"
     id="g5636">
    <path
       style="fill:url(#h)"
       inkscape:connector-curvature="0"
       d="m 38,40 h 5 v 7 h -5 z"
       transform="matrix(1.57895,0,0,0.71429,-28,28.429)"
       id="path5632" />
    <path
       style="fill:url(#i)"
       inkscape:connector-curvature="0"
       transform="matrix(-1.57895,0,0,-0.71429,-28,28.429)"
       d="m -38,-47 h 5 v 7 h -5 z"
       id="path5634" />
  </g>
  <path
     d="m 108.0107,16.391525 v 52.798397 c 0,3.941542 -0.76769,7.848723 -2.30306,11.721517 -1.53537,3.872795 -3.43738,7.310193 -5.70606,10.312184 -2.268699,3.001993 -4.972771,5.923785 -8.112264,8.765361 -3.13949,2.841576 -6.038355,5.201926 -8.696612,7.081036 -2.658249,1.87909 -5.431079,3.6551 -8.31849,5.32795 -2.887412,1.67288 -4.938391,2.80721 -6.152937,3.40303 -1.214548,0.59581 -2.188482,1.05413 -2.921789,1.37497 -0.549987,0.27497 -1.145799,0.41247 -1.787446,0.41247 -0.641647,0 -1.23746,-0.1375 -1.787447,-0.41247 -0.733307,-0.32084 -1.707241,-0.77916 -2.921788,-1.37497 -1.214547,-0.59582 -3.265526,-1.73015 -6.152937,-3.40303 -2.887412,-1.67285 -5.660242,-3.44886 -8.318491,-5.32795 -2.658257,-1.87911 -5.557123,-4.23946 -8.696613,-7.081036 C 32.99528,97.147408 30.291198,94.225616 28.022512,91.223623 25.753834,88.221632 23.851807,84.784234 22.316437,80.911439 20.781067,77.038645 20.013381,73.131464 20.013381,69.189922 V 16.391525 c 0,-1.191626 0.435406,-2.222843 1.306208,-3.093653 0.870809,-0.87081 1.902027,-1.306207 3.093661,-1.306207 h 79.19759 c 1.19162,0 2.22284,0.435397 3.09366,1.306207 0.8708,0.87081 1.3062,1.902027 1.3062,3.093653 z"
     id="path215"
     inkscape:connector-curvature="0"
     sodipodi:nodetypes="sssssssscscsssssssssssss"
     style="fill:url(#linearGradient5319);fill-opacity:1;stroke:none;stroke-width:0.06874792;stroke-opacity:1;font-variant-east_asian:normal;opacity:1;vector-effect:none;stroke-linecap:butt;stroke-linejoin:miter;stroke-miterlimit:4;stroke-dasharray:none;stroke-dashoffset:0" />
  <path
     style="fill:none;fill-opacity:1;stroke:#3c80bc;stroke-width:1;stroke-opacity:1;font-variant-east_asian:normal;opacity:1;vector-effect:none;stroke-linecap:butt;stroke-linejoin:miter;stroke-miterlimit:4;stroke-dasharray:none;stroke-dashoffset:0"
     sodipodi:nodetypes="sssssssscscsssssssssssss"
     inkscape:connector-curvature="0"
     id="path5390"
     d="m 108.0107,16.391525 v 52.798397 c 0,3.941542 -0.76769,7.848723 -2.30306,11.721517 -1.53537,3.872795 -3.43738,7.310193 -5.70606,10.312184 -2.268699,3.001993 -4.972771,5.923785 -8.112264,8.765361 -3.13949,2.841576 -6.038355,5.201926 -8.696612,7.081036 -2.658249,1.87909 -5.431079,3.6551 -8.31849,5.32795 -2.887412,1.67288 -4.938391,2.80721 -6.152937,3.40303 -1.214548,0.59581 -2.188482,1.05413 -2.921789,1.37497 -0.549987,0.27497 -1.145799,0.41247 -1.787446,0.41247 -0.641647,0 -1.23746,-0.1375 -1.787447,-0.41247 -0.733307,-0.32084 -1.707241,-0.77916 -2.921788,-1.37497 -1.214547,-0.59582 -3.265526,-1.73015 -6.152937,-3.40303 -2.887412,-1.67285 -5.660242,-3.44886 -8.318491,-5.32795 -2.658257,-1.87911 -5.557123,-4.23946 -8.696613,-7.081036 C 32.99528,97.147408 30.291198,94.225616 28.022512,91.223623 25.753834,88.221632 23.851807,84.784234 22.316437,80.911439 20.781067,77.038645 20.013381,73.131464 20.013381,69.189922 V 16.391525 c 0,-1.191626 0.435406,-2.222843 1.306208,-3.093653 0.870809,-0.87081 1.902027,-1.306207 3.093661,-1.306207 h 79.19759 c 1.19162,0 2.22284,0.435397 3.09366,1.306207 0.8708,0.87081 1.3062,1.902027 1.3062,3.093653 z" />
  <path
     id="path7066"
     d="m 53.681421,55.829695 h 20.64881 v -7.743304 q 0,-4.27495 -3.024724,-7.299678 -3.024731,-3.024728 -7.299681,-3.024728 -4.27495,0 -7.299681,3.024728 -3.024724,3.024728 -3.024724,7.299678 z m 33.554321,3.871652 v 23.229909 q 0,1.613188 -1.129236,2.742424 -1.129229,1.129229 -2.742417,1.129229 H 44.647563 q -1.613188,0 -2.742417,-1.129229 Q 40.77591,84.544444 40.77591,82.931256 V 59.701347 q 0,-1.613188 1.129236,-2.74242 1.129229,-1.129232 2.742417,-1.129232 h 1.290553 v -7.743304 q 0,-7.420667 5.323523,-12.744189 5.323524,-5.323521 12.744187,-5.323521 7.420663,0 12.744187,5.323521 5.323523,5.323522 5.323523,12.744189 v 7.743304 h 1.290553 q 1.613188,0 2.742417,1.129232 1.129236,1.129232 1.129236,2.74242 z"
     inkscape:connector-curvature="0"
     style="opacity:0.221;fill:#0d52bf;fill-opacity:1;stroke-width:0.04032971;stroke:#3c8dbc;stroke-opacity:1" />
  <path
     style="opacity:1;vector-effect:none;fill:none;fill-opacity:1;stroke:url(#linearGradient5410);stroke-width:0.97918713;stroke-linecap:round;stroke-linejoin:round;stroke-miterlimit:4;stroke-dasharray:none;stroke-dashoffset:0;stroke-opacity:1"
     sodipodi:nodetypes="cssssssscscsssssssssssssc"
     inkscape:connector-curvature="0"
     id="path5402"
     d="m 107.03597,16.954554 -0.0332,52.168174 c -0.002,3.867123 -0.75024,7.700535 -2.2507,11.500208 -1.50044,3.799674 -3.3592,7.172171 -5.576291,10.117484 -2.217105,2.945312 -4.859683,5.811939 -7.927781,8.599862 -3.068094,2.787938 -5.901035,5.103708 -8.498839,6.947338 -2.597797,1.84362 -5.307571,3.58609 -8.129318,5.22737 -2.821748,1.64128 -4.826085,2.7542 -6.013011,3.33877 -1.186928,0.58456 -2.138713,1.03423 -2.855345,1.349 -0.537478,0.26979 -1.119741,0.4047 -1.746796,0.4047 -0.627055,0 -1.209319,-0.13491 -1.746799,-0.4047 -0.71663,-0.31477 -1.668416,-0.76444 -2.855342,-1.349 -1.186927,-0.58457 -3.191264,-1.69749 -6.013011,-3.33877 -2.821749,-1.64128 -5.531522,-3.38375 -8.129319,-5.22737 -2.597804,-1.84363 -5.430746,-4.1594 -8.49884,-6.947338 -3.068041,-2.787923 -5.710629,-5.65455 -7.927721,-8.599862 -2.217086,-2.945313 -4.075858,-6.31781 -5.576312,-10.117484 -1.500453,-3.799673 -2.245763,-7.633087 -2.250682,-11.500208 l -0.06629,-52.118924 c -0.0015,-1.169127 0.182437,-2.120679 1.033435,-2.975047 0.851007,-0.854368 1.715143,-1.090743 2.879677,-1.090013 l 78.584255,0.04925 c 1.16977,7.33e-4 1.82978,0.273952 2.68079,1.12832 0.851,0.854368 0.91818,1.66911 0.91744,2.838239 z" />
  <path
     style="fill:#0d52bf;fill-opacity:1;stroke-width:0.04032971;opacity:0.471;stroke:#3c8dbc;stroke-opacity:1"
     inkscape:connector-curvature="0"
     d="m 53.681421,53.829695 h 20.64881 v -7.743304 q 0,-4.27495 -3.024724,-7.299678 -3.024731,-3.024728 -7.299681,-3.024728 -4.27495,0 -7.299681,3.024728 -3.024724,3.024728 -3.024724,7.299678 z m 33.554321,3.871652 v 23.229909 q 0,1.613188 -1.129236,2.742424 -1.129229,1.129229 -2.742417,1.129229 H 44.647563 q -1.613188,0 -2.742417,-1.129229 Q 40.77591,82.544444 40.77591,80.931256 V 57.701347 q 0,-1.613188 1.129236,-2.74242 1.129229,-1.129232 2.742417,-1.129232 h 1.290553 v -7.743304 q 0,-7.420667 5.323523,-12.744189 5.323524,-5.323521 12.744187,-5.323521 7.420663,0 12.744187,5.323521 5.323523,5.323522 5.323523,12.744189 v 7.743304 h 1.290553 q 1.613188,0 2.742417,1.129232 1.129236,1.129232 1.129236,2.74242 z"
     id="path7064" />
  <path
     id="path6309"
     d="m 53.681421,51.829695 h 20.64881 v -7.743304 q 0,-4.27495 -3.024724,-7.299678 -3.024731,-3.024728 -7.299681,-3.024728 -4.27495,0 -7.299681,3.024728 -3.024724,3.024728 -3.024724,7.299678 z m 33.554321,3.871652 v 23.229909 q 0,1.613188 -1.129236,2.742424 -1.129229,1.129229 -2.742417,1.129229 H 44.647563 q -1.613188,0 -2.742417,-1.129229 Q 40.77591,80.544444 40.77591,78.931256 V 55.701347 q 0,-1.613188 1.129236,-2.74242 1.129229,-1.129232 2.742417,-1.129232 h 1.290553 v -7.743304 q 0,-7.420667 5.323523,-12.744189 5.323524,-5.323521 12.744187,-5.323521 7.420663,0 12.744187,5.323521 5.323523,5.323522 5.323523,12.744189 v 7.743304 h 1.290553 q 1.613188,0 2.742417,1.129232 1.129236,1.129232 1.129236,2.74242 z"
     inkscape:connector-curvature="0"
     style="stroke-width:0.04032971;fill:#ffffff;fill-opacity:1" />
</svg>
