<?xml version="1.0" encoding="UTF-8" standalone="no"?>
<svg
   xmlns:dc="http://purl.org/dc/elements/1.1/"
   xmlns:cc="http://creativecommons.org/ns#"
   xmlns:rdf="http://www.w3.org/1999/02/22-rdf-syntax-ns#"
   xmlns:svg="http://www.w3.org/2000/svg"
   xmlns="http://www.w3.org/2000/svg"
   xmlns:xlink="http://www.w3.org/1999/xlink"
   xmlns:sodipodi="http://sodipodi.sourceforge.net/DTD/sodipodi-0.dtd"
   xmlns:inkscape="http://www.inkscape.org/namespaces/inkscape"
   width="32"
   height="32"
   viewBox="0 0 32 32"
   version="1.1"
   id="svg217"
   sodipodi:docname="shield-32.svg"
   inkscape:export-filename="/home/daniel/dev/icons/shield.svg.png"
   inkscape:export-xdpi="96"
   inkscape:export-ydpi="96"
   inkscape:version="0.92.3 (2405546, 2018-03-11)">
  <metadata
     id="metadata223">
    <rdf:RDF>
      <cc:Work
         rdf:about="">
        <dc:format>image/svg+xml</dc:format>
        <dc:type
           rdf:resource="http://purl.org/dc/dcmitype/StillImage" />
        <dc:title></dc:title>
      </cc:Work>
    </rdf:RDF>
  </metadata>
  <defs
     id="defs221">
    <linearGradient
       id="linearGradient7072"
       inkscape:collect="always">
      <stop
         id="stop7068"
         offset="0"
         style="stop-color:#3c8dbc;stop-opacity:1" />
      <stop
         id="stop7070"
         offset="1"
         style="stop-color:#3c75bc;stop-opacity:1" />
    </linearGradient>
    <linearGradient
       id="linearGradient5421"
       inkscape:collect="always">
      <stop
         id="stop5417"
         offset="0"
         style="stop-color:#ffffff;stop-opacity:1" />
      <stop
         style="stop-color:#ffffff;stop-opacity:0.23529412"
         offset="0.03773585"
         id="stop5441" />
      <stop
         id="stop5453"
         offset="0.96217406"
         style="stop-color:#ffffff;stop-opacity:0.15686275" />
      <stop
         id="stop5419"
         offset="1"
         style="stop-color:#ffffff;stop-opacity:0.39215687" />
    </linearGradient>
    <linearGradient
       inkscape:collect="always"
       id="linearGradient5317-0">
      <stop
         style="stop-color:#8cd5ff;stop-opacity:1"
         offset="0"
         id="stop5313" />
      <stop
         style="stop-color:#3689e6;stop-opacity:1"
         offset="1"
         id="stop5315" />
    </linearGradient>
    <linearGradient
       inkscape:collect="always"
       xlink:href="#linearGradient7072"
       id="linearGradient5319"
       x1="1536"
       y1="128.20189"
       x2="1536"
       y2="1661.1135"
       gradientUnits="userSpaceOnUse"
       gradientTransform="matrix(0.01718698,0,0,0.01718698,0.608748,1.359378)" />
    <linearGradient
       inkscape:collect="always"
       xlink:href="#linearGradient5317-0"
       id="linearGradient5319-3"
       x1="1536"
       y1="128.20189"
       x2="1536"
       y2="1661.1135"
       gradientUnits="userSpaceOnUse"
       gradientTransform="matrix(0.06874791,0,0,0.06874791,-17.599465,-8.7997302)" />
    <linearGradient
       inkscape:collect="always"
       xlink:href="#linearGradient5421"
       id="linearGradient5410"
       x1="64.007195"
       y1="9.4390574"
       x2="64.007195"
       y2="119.00778"
       gradientUnits="userSpaceOnUse"
       gradientTransform="matrix(0.24431468,0,0,0.24527985,0.367372,0.871184)" />
    <radialGradient
       cx="4.993"
       cy="43.5"
       r="2.5"
       fx="4.993"
       fy="43.5"
       id="h"
       xlink:href="#b"
       gradientUnits="userSpaceOnUse"
       gradientTransform="matrix(2.00378,0,0,1.4,27.988,-17.4)" />
    <linearGradient
       id="b">
      <stop
         offset="0"
         stop-color="#181818"
         id="stop5614" />
      <stop
         offset="1"
         stop-color="#181818"
         stop-opacity="0"
         id="stop5616" />
    </linearGradient>
    <radialGradient
       cx="4.993"
       cy="43.5"
       r="2.5"
       fx="4.993"
       fy="43.5"
       id="i"
       xlink:href="#b"
       gradientUnits="userSpaceOnUse"
       gradientTransform="matrix(2.00378,0,0,1.4,-48.012,-104.4)" />
    <radialGradient
       gradientUnits="userSpaceOnUse"
       gradientTransform="matrix(0.39174108,0,0,0.026785,3.495843,28.467487)"
       r="28"
       fy="59.5"
       fx="32"
       cy="59.5"
       cx="32"
       id="g"
       xlink:href="#f" />
    <linearGradient
       id="f">
      <stop
         offset="0"
         id="stop5588" />
      <stop
         offset="1"
         stop-opacity="0"
         id="stop5590" />
    </linearGradient>
  </defs>
  <sodipodi:namedview
     pagecolor="#ffffff"
     bordercolor="#666666"
     borderopacity="1"
     objecttolerance="10"
     gridtolerance="10"
     guidetolerance="10"
     inkscape:pageopacity="0"
     inkscape:pageshadow="2"
     inkscape:window-width="1720"
     inkscape:window-height="1377"
     id="namedview219"
     showgrid="true"
     inkscape:zoom="11.313708"
     inkscape:cx="16.434404"
     inkscape:cy="16.750185"
     inkscape:window-x="0"
     inkscape:window-y="30"
     inkscape:window-maximized="0"
     inkscape:current-layer="svg217"
     showguides="false"
     inkscape:lockguides="true"
     inkscape:pagecheckerboard="false"
     borderlayer="false">
    <inkscape:grid
       type="xygrid"
       id="grid5325"
       empspacing="4" />
    <inkscape:grid
       type="xygrid"
       id="grid5327"
       color="#ffef3f"
       opacity="0.2745098"
       empspacing="2"
       empcolor="#ffef3f"
       empopacity="0.2745098"
       spacingx="0.5"
       spacingy="0.5"
       dotted="true" />
  </sodipodi:namedview>
  <ellipse
     style="opacity:0.1;fill:url(#g);stroke-width:0.31294611"
     ry="0.75"
     rx="10.96875"
     cy="30.061237"
     cx="16.031555"
     id="ellipse5630" />
  <g
     transform="matrix(0.25,0,0,0.25,8.004115,15.061237)"
     style="opacity:0.4"
     id="g5636">
    <path
       style="fill:url(#h)"
       inkscape:connector-curvature="0"
       d="m 38,40 h 5 v 7 h -5 z"
       transform="matrix(1.57895,0,0,0.71429,-28,28.429)"
       id="path5632" />
    <path
       style="fill:url(#i)"
       inkscape:connector-curvature="0"
       transform="matrix(-1.57895,0,0,-0.71429,-28,28.429)"
       d="m -38,-47 h 5 v 7 h -5 z"
       id="path5634" />
  </g>
  <path
     d="m 27.007944,4.659276 v 13.199599 c 0,0.985385 -0.191922,1.962181 -0.575765,2.930379 -0.383842,0.968199 -0.859345,1.827549 -1.426515,2.578046 -0.567174,0.750499 -1.243192,1.480947 -2.028066,2.191341 -0.784872,0.710394 -1.509588,1.300481 -2.174153,1.770259 -0.664562,0.469772 -1.357769,0.913775 -2.079622,1.331987 -0.721853,0.41822 -1.234598,0.701803 -1.538234,0.850758 -0.303637,0.148952 -0.547121,0.263532 -0.730448,0.343742 -0.137496,0.06874 -0.286449,0.103118 -0.446861,0.103118 -0.160412,0 -0.309365,-0.03438 -0.446862,-0.103118 -0.183327,-0.08021 -0.42681,-0.19479 -0.730447,-0.343742 C 14.527334,29.36269 14.01459,29.079107 13.292737,28.660887 12.570884,28.242675 11.877676,27.798672 11.213114,27.3289 10.54855,26.859122 9.823833,26.269035 9.038961,25.558641 8.254089,24.848247 7.578069,24.117799 7.010897,23.3673 6.443728,22.616803 5.968221,21.757453 5.584379,20.789254 5.200536,19.821056 5.008615,18.84426 5.008615,17.858875 V 4.659276 c 0,-0.297907 0.108851,-0.555711 0.326552,-0.773413 C 5.552869,3.66816 5.810673,3.559311 6.108582,3.559311 h 19.799397 c 0.297905,0 0.55571,0.108849 0.773415,0.326552 0.2177,0.217702 0.32655,0.475506 0.32655,0.773413 z"
     id="path215"
     inkscape:connector-curvature="0"
     sodipodi:nodetypes="sssssssscscsssssssssssss"
     style="opacity:1;vector-effect:none;fill:url(#linearGradient5319);fill-opacity:1;stroke:none;stroke-width:0.01718698;stroke-linecap:butt;stroke-linejoin:miter;stroke-miterlimit:4;stroke-dasharray:none;stroke-dashoffset:0;stroke-opacity:1" />
  <path
     style="opacity:1;vector-effect:none;fill:none;fill-opacity:1;stroke:#3c80bc;stroke-width:0.25;stroke-linecap:butt;stroke-linejoin:miter;stroke-miterlimit:4;stroke-dasharray:none;stroke-dashoffset:0;stroke-opacity:1"
     sodipodi:nodetypes="sssssssscscsssssssssssss"
     inkscape:connector-curvature="0"
     id="path5390"
     d="m 27.007944,4.659276 v 13.199599 c 0,0.985385 -0.191922,1.962181 -0.575765,2.930379 -0.383842,0.968199 -0.859345,1.827549 -1.426515,2.578046 -0.567174,0.750499 -1.243192,1.480947 -2.028066,2.191341 -0.784872,0.710394 -1.509588,1.300481 -2.174153,1.770259 -0.664562,0.469772 -1.357769,0.913775 -2.079622,1.331987 -0.721853,0.41822 -1.234598,0.701803 -1.538234,0.850758 -0.303637,0.148952 -0.547121,0.263532 -0.730448,0.343742 -0.137496,0.06874 -0.286449,0.103118 -0.446861,0.103118 -0.160412,0 -0.309365,-0.03438 -0.446862,-0.103118 -0.183327,-0.08021 -0.42681,-0.19479 -0.730447,-0.343742 C 14.527334,29.36269 14.01459,29.079107 13.292737,28.660887 12.570884,28.242675 11.877676,27.798672 11.213114,27.3289 10.54855,26.859122 9.823833,26.269035 9.038961,25.558641 8.254089,24.848247 7.578069,24.117799 7.010897,23.3673 6.443728,22.616803 5.968221,21.757453 5.584379,20.789254 5.200536,19.821056 5.008615,18.84426 5.008615,17.858875 V 4.659276 c 0,-0.297907 0.108851,-0.555711 0.326552,-0.773413 C 5.552869,3.66816 5.810673,3.559311 6.108582,3.559311 h 19.799397 c 0.297905,0 0.55571,0.108849 0.773415,0.326552 0.2177,0.217702 0.32655,0.475506 0.32655,0.773413 z" />
  <path
     id="path7066"
     d="m 13.425625,14.518818 h 5.162202 v -1.935826 q 0,-1.068737 -0.756181,-1.824919 -0.756183,-0.756182 -1.82492,-0.756182 -1.068738,0 -1.82492,0.756182 -0.756181,0.756182 -0.756181,1.824919 z m 8.38858,0.967913 v 5.807478 q 0,0.403297 -0.282309,0.685606 -0.282307,0.282307 -0.685604,0.282307 H 11.16716 q -0.403297,0 -0.685604,-0.282307 -0.282309,-0.282309 -0.282309,-0.685606 v -5.807478 q 0,-0.403297 0.282309,-0.685605 0.282307,-0.282308 0.685604,-0.282308 h 0.322638 v -1.935826 q 0,-1.855166 1.330881,-3.1860468 1.330881,-1.3308805 3.186047,-1.3308805 1.855166,0 3.186047,1.3308805 1.33088,1.3308808 1.33088,3.1860468 v 1.935826 h 0.322639 q 0.403297,0 0.685604,0.282308 0.282309,0.282308 0.282309,0.685605 z"
     inkscape:connector-curvature="0"
     style="opacity:0.22099998;fill:#0d52bf;fill-opacity:1;stroke:#3c8dbc;stroke-width:0.01008242;stroke-opacity:1" />
  <path
     style="opacity:1;vector-effect:none;fill:none;fill-opacity:1;stroke:url(#linearGradient5410);stroke-width:0.24479678;stroke-linecap:round;stroke-linejoin:round;stroke-miterlimit:4;stroke-dasharray:none;stroke-dashoffset:0;stroke-opacity:1"
     sodipodi:nodetypes="cssssssscscsssssssssssssc"
     inkscape:connector-curvature="0"
     id="path5402"
     d="m 26.764262,4.800033 -0.0083,13.042043 c -5e-4,0.966781 -0.18756,1.925134 -0.562675,2.875052 -0.37511,0.949919 -0.8398,1.793043 -1.394073,2.529372 -0.554276,0.736328 -1.214921,1.452984 -1.981945,2.149965 -0.767024,0.696985 -1.475259,1.275927 -2.12471,1.736835 -0.649449,0.460905 -1.326893,0.896522 -2.032329,1.306842 -0.705437,0.41032 -1.206522,0.68855 -1.503253,0.834693 -0.296732,0.14614 -0.534678,0.258557 -0.713836,0.33725 -0.13437,0.06745 -0.279936,0.101175 -0.436699,0.101175 -0.156764,0 -0.30233,-0.03373 -0.4367,-0.101175 -0.179158,-0.07869 -0.417104,-0.19111 -0.713836,-0.33725 C 14.559175,29.128692 14.05809,28.850462 13.352654,28.440142 12.647216,28.029822 11.969773,27.594205 11.320324,27.1333 10.670873,26.672392 9.962637,26.09345 9.195614,25.396465 8.428604,24.699484 7.767957,23.982828 7.213684,23.2465 6.659412,22.510171 6.194719,21.667047 5.819606,20.717128 5.444492,19.76721 5.258165,18.808857 5.256935,17.842076 L 5.24036,4.812346 C 5.239985,4.520064 5.28597,4.282176 5.498719,4.068584 5.711471,3.854992 5.927505,3.795898 6.218638,3.796081 l 19.646064,0.01232 c 0.292442,1.83e-4 0.457445,0.06849 0.670197,0.28208 0.21275,0.213592 0.229545,0.417277 0.22936,0.70956 z" />
  <path
     style="opacity:0.47099998;fill:#0d52bf;fill-opacity:1;stroke:#3c8dbc;stroke-width:0.01008242;stroke-opacity:1"
     inkscape:connector-curvature="0"
     d="m 13.425625,14.018818 h 5.162202 v -1.935826 q 0,-1.068737 -0.756181,-1.824919 -0.756183,-0.7561823 -1.82492,-0.7561823 -1.068738,0 -1.82492,0.7561823 -0.756181,0.756182 -0.756181,1.824919 z m 8.38858,0.967913 v 5.807477 q 0,0.403298 -0.282309,0.685607 -0.282307,0.282307 -0.685604,0.282307 H 11.16716 q -0.403297,0 -0.685604,-0.282307 -0.282309,-0.282309 -0.282309,-0.685607 v -5.807477 q 0,-0.403297 0.282309,-0.685605 0.282307,-0.282308 0.685604,-0.282308 h 0.322638 v -1.935826 q 0,-1.855166 1.330881,-3.1860468 1.330881,-1.3308805 3.186047,-1.3308805 1.855166,0 3.186047,1.3308805 1.33088,1.3308808 1.33088,3.1860468 v 1.935826 h 0.322639 q 0.403297,0 0.685604,0.282308 0.282309,0.282308 0.282309,0.685605 z"
     id="path7064" />
  <path
     id="path6309"
     d="m 13.425625,13.518818 h 5.162202 v -1.935826 q 0,-1.068737 -0.756181,-1.8249193 -0.756183,-0.756182 -1.82492,-0.756182 -1.068738,0 -1.82492,0.756182 -0.756181,0.7561823 -0.756181,1.8249193 z m 8.38858,0.967913 v 5.807477 q 0,0.403297 -0.282309,0.685606 -0.282307,0.282308 -0.685604,0.282308 H 11.16716 q -0.403297,0 -0.685604,-0.282308 -0.282309,-0.282309 -0.282309,-0.685606 v -5.807477 q 0,-0.403297 0.282309,-0.685605 0.282307,-0.282308 0.685604,-0.282308 h 0.322638 v -1.935826 q 0,-1.8551663 1.330881,-3.1860468 1.330881,-1.3308805 3.186047,-1.3308805 1.855166,0 3.186047,1.3308805 1.33088,1.3308805 1.33088,3.1860468 v 1.935826 h 0.322639 q 0.403297,0 0.685604,0.282308 0.282309,0.282308 0.282309,0.685605 z"
     inkscape:connector-curvature="0"
     style="fill:#ffffff;fill-opacity:1;stroke-width:0.01008242" />
</svg>
