<?xml version="1.0" encoding="UTF-8" standalone="no"?>
<svg
   xmlns:dc="http://purl.org/dc/elements/1.1/"
   xmlns:cc="http://creativecommons.org/ns#"
   xmlns:rdf="http://www.w3.org/1999/02/22-rdf-syntax-ns#"
   xmlns:svg="http://www.w3.org/2000/svg"
   xmlns="http://www.w3.org/2000/svg"
   xmlns:xlink="http://www.w3.org/1999/xlink"
   xmlns:sodipodi="http://sodipodi.sourceforge.net/DTD/sodipodi-0.dtd"
   xmlns:inkscape="http://www.inkscape.org/namespaces/inkscape"
   width="16"
   height="16"
   viewBox="0 0 16 16"
   version="1.1"
   id="svg217"
   sodipodi:docname="shield-16.svg"
   inkscape:export-filename="/home/daniel/dev/icons/shield.svg.png"
   inkscape:export-xdpi="96"
   inkscape:export-ydpi="96"
   inkscape:version="0.92.3 (2405546, 2018-03-11)">
  <metadata
     id="metadata223">
    <rdf:RDF>
      <cc:Work
         rdf:about="">
        <dc:format>image/svg+xml</dc:format>
        <dc:type
           rdf:resource="http://purl.org/dc/dcmitype/StillImage" />
        <dc:title></dc:title>
      </cc:Work>
    </rdf:RDF>
  </metadata>
  <defs
     id="defs221">
    <linearGradient
       id="linearGradient7072"
       inkscape:collect="always">
      <stop
         id="stop7068"
         offset="0"
         style="stop-color:#3c8dbc;stop-opacity:1" />
      <stop
         id="stop7070"
         offset="1"
         style="stop-color:#3c75bc;stop-opacity:1" />
    </linearGradient>
    <linearGradient
       id="linearGradient5421"
       inkscape:collect="always">
      <stop
         id="stop5417"
         offset="0"
         style="stop-color:#ffffff;stop-opacity:1" />
      <stop
         style="stop-color:#ffffff;stop-opacity:0.23529412"
         offset="0.03773585"
         id="stop5441" />
      <stop
         id="stop5453"
         offset="0.96217406"
         style="stop-color:#ffffff;stop-opacity:0.15686275" />
      <stop
         id="stop5419"
         offset="1"
         style="stop-color:#ffffff;stop-opacity:0.39215687" />
    </linearGradient>
    <linearGradient
       inkscape:collect="always"
       id="linearGradient5317-0">
      <stop
         style="stop-color:#8cd5ff;stop-opacity:1"
         offset="0"
         id="stop5313" />
      <stop
         style="stop-color:#3689e6;stop-opacity:1"
         offset="1"
         id="stop5315" />
    </linearGradient>
    <linearGradient
       inkscape:collect="always"
       xlink:href="#linearGradient7072"
       id="linearGradient5319"
       x1="1536"
       y1="128.20189"
       x2="1536"
       y2="1661.1135"
       gradientUnits="userSpaceOnUse"
       gradientTransform="matrix(0.00859349,0,0,0.00859349,0.31256675,0.5239955)" />
    <linearGradient
       inkscape:collect="always"
       xlink:href="#linearGradient5317-0"
       id="linearGradient5319-3"
       x1="1536"
       y1="128.20189"
       x2="1536"
       y2="1661.1135"
       gradientUnits="userSpaceOnUse"
       gradientTransform="matrix(0.06874791,0,0,0.06874791,-17.599465,-8.7997302)" />
    <linearGradient
       inkscape:collect="always"
       xlink:href="#linearGradient5421"
       id="linearGradient5410"
       x1="64.007195"
       y1="9.4390574"
       x2="64.007195"
       y2="119.00778"
       gradientUnits="userSpaceOnUse"
       gradientTransform="matrix(0.12215734,0,0,0.12263992,0.19187875,0.2798985)" />
    <radialGradient
       cx="4.993"
       cy="43.5"
       r="2.5"
       fx="4.993"
       fy="43.5"
       id="h"
       xlink:href="#b"
       gradientUnits="userSpaceOnUse"
       gradientTransform="matrix(2.00378,0,0,1.4,27.988,-17.4)" />
    <linearGradient
       id="b">
      <stop
         offset="0"
         stop-color="#181818"
         id="stop5614" />
      <stop
         offset="1"
         stop-color="#181818"
         stop-opacity="0"
         id="stop5616" />
    </linearGradient>
    <radialGradient
       cx="4.993"
       cy="43.5"
       r="2.5"
       fx="4.993"
       fy="43.5"
       id="i"
       xlink:href="#b"
       gradientUnits="userSpaceOnUse"
       gradientTransform="matrix(2.00378,0,0,1.4,-48.012,-104.4)" />
    <radialGradient
       gradientUnits="userSpaceOnUse"
       gradientTransform="matrix(0.19587054,0,0,0.0133925,1.7561143,14.07805)"
       r="28"
       fy="59.5"
       fx="32"
       cy="59.5"
       cx="32"
       id="g"
       xlink:href="#f" />
    <linearGradient
       id="f">
      <stop
         offset="0"
         id="stop5588" />
      <stop
         offset="1"
         stop-opacity="0"
         id="stop5590" />
    </linearGradient>
  </defs>
  <sodipodi:namedview
     pagecolor="#ffffff"
     bordercolor="#666666"
     borderopacity="1"
     objecttolerance="10"
     gridtolerance="10"
     guidetolerance="10"
     inkscape:pageopacity="0"
     inkscape:pageshadow="2"
     inkscape:window-width="1720"
     inkscape:window-height="1377"
     id="namedview219"
     showgrid="true"
     inkscape:zoom="2"
     inkscape:cx="8.8426152"
     inkscape:cy="9.1581759"
     inkscape:window-x="0"
     inkscape:window-y="30"
     inkscape:window-maximized="0"
     inkscape:current-layer="svg217"
     showguides="false"
     inkscape:lockguides="true"
     inkscape:pagecheckerboard="false"
     borderlayer="false">
    <inkscape:grid
       type="xygrid"
       id="grid5325"
       empspacing="4" />
    <inkscape:grid
       type="xygrid"
       id="grid5327"
       color="#ffef3f"
       opacity="0.2745098"
       empspacing="2"
       empcolor="#ffef3f"
       empopacity="0.2745098"
       spacingx="0.5"
       spacingy="0.5"
       dotted="true" />
  </sodipodi:namedview>
  <ellipse
     style="opacity:0.1;fill:url(#g);stroke-width:0.15647306"
     ry="0.375"
     rx="5.484375"
     cy="14.874927"
     cx="8.0239697"
     id="ellipse5630" />
  <g
     transform="matrix(0.125,0,0,0.125,4.01025,7.374925)"
     style="opacity:0.4"
     id="g5636">
    <path
       style="fill:url(#h)"
       inkscape:connector-curvature="0"
       d="m 38,40 h 5 v 7 h -5 z"
       transform="matrix(1.57895,0,0,0.71429,-28,28.429)"
       id="path5632" />
    <path
       style="fill:url(#i)"
       inkscape:connector-curvature="0"
       transform="matrix(-1.57895,0,0,-0.71429,-28,28.429)"
       d="m -38,-47 h 5 v 7 h -5 z"
       id="path5634" />
  </g>
  <path
     d="M 13.512165,2.1739445 V 8.773744 c 0,0.492693 -0.09596,0.981091 -0.287883,1.46519 -0.191921,0.484099 -0.429672,0.913774 -0.713257,1.289023 -0.283587,0.375249 -0.621596,0.740473 -1.014033,1.09567 -0.392436,0.355197 -0.754794,0.650241 -1.087077,0.88513 -0.332281,0.234886 -0.6788841,0.456887 -1.0398111,0.665993 -0.360926,0.20911 -0.617299,0.350902 -0.769117,0.425379 -0.151818,0.07448 -0.27356,0.131766 -0.365224,0.171871 -0.06875,0.03437 -0.143224,0.05156 -0.22343,0.05156 -0.08021,0 -0.154683,-0.01719 -0.223431,-0.05156 -0.09166,-0.04011 -0.213405,-0.0974 -0.365224,-0.171871 C 7.2718599,14.525651 7.0154879,14.38386 6.6545609,14.17475 6.2936349,13.965644 5.947031,13.743643 5.61475,13.508757 5.282468,13.273868 4.9201089,12.978824 4.5276729,12.623627 4.1352369,12.26843 3.797227,11.903206 3.513641,11.527957 3.230057,11.152708 2.992303,10.723033 2.800382,10.238934 2.608461,9.754835 2.5125,9.266437 2.5125,8.773744 V 2.1739445 C 2.5125,2.024991 2.56693,1.896089 2.675776,1.787238 2.784627,1.6783865 2.913529,1.623962 3.062484,1.623962 h 9.899698 c 0.148953,0 0.277855,0.054425 0.386708,0.163276 0.10885,0.108851 0.163275,0.237753 0.163275,0.3867065 z"
     id="path215"
     inkscape:connector-curvature="0"
     sodipodi:nodetypes="sssssssscscsssssssssssss"
     style="opacity:1;vector-effect:none;fill:url(#linearGradient5319);fill-opacity:1;stroke:none;stroke-width:0.00859349;stroke-linecap:butt;stroke-linejoin:miter;stroke-miterlimit:4;stroke-dasharray:none;stroke-dashoffset:0;stroke-opacity:1" />
  <path
     style="opacity:1;vector-effect:none;fill:none;fill-opacity:1;stroke:#3c80bc;stroke-width:0.125;stroke-linecap:butt;stroke-linejoin:miter;stroke-miterlimit:4;stroke-dasharray:none;stroke-dashoffset:0;stroke-opacity:1"
     sodipodi:nodetypes="sssssssscscsssssssssssss"
     inkscape:connector-curvature="0"
     id="path5390"
     d="M 13.512165,2.1739445 V 8.773744 c 0,0.492693 -0.09596,0.981091 -0.287883,1.46519 -0.191921,0.484099 -0.429672,0.913774 -0.713257,1.289023 -0.283587,0.375249 -0.621596,0.740473 -1.014033,1.09567 -0.392436,0.355197 -0.754794,0.650241 -1.087077,0.88513 -0.332281,0.234886 -0.6788841,0.456887 -1.0398111,0.665993 -0.360926,0.20911 -0.617299,0.350902 -0.769117,0.425379 -0.151818,0.07448 -0.27356,0.131766 -0.365224,0.171871 -0.06875,0.03437 -0.143224,0.05156 -0.22343,0.05156 -0.08021,0 -0.154683,-0.01719 -0.223431,-0.05156 -0.09166,-0.04011 -0.213405,-0.0974 -0.365224,-0.171871 C 7.2718599,14.525651 7.0154879,14.38386 6.6545609,14.17475 6.2936349,13.965644 5.947031,13.743643 5.61475,13.508757 5.282468,13.273868 4.9201089,12.978824 4.5276729,12.623627 4.1352369,12.26843 3.797227,11.903206 3.513641,11.527957 3.230057,11.152708 2.992303,10.723033 2.800382,10.238934 2.608461,9.754835 2.5125,9.266437 2.5125,8.773744 V 2.1739445 C 2.5125,2.024991 2.56693,1.896089 2.675776,1.787238 2.784627,1.6783865 2.913529,1.623962 3.062484,1.623962 h 9.899698 c 0.148953,0 0.277855,0.054425 0.386708,0.163276 0.10885,0.108851 0.163275,0.237753 0.163275,0.3867065 z" />
  <path
     id="path7066"
     d="m 6.721005,7.1037155 h 2.581101 v -0.967913 q 0,-0.5343685 -0.37809,-0.9124595 -0.378092,-0.378091 -0.9124601,-0.378091 -0.5343689,0 -0.91246,0.378091 Q 6.721005,5.601434 6.721005,6.1358025 Z m 4.19429,0.4839565 v 2.903739 q 0,0.201649 -0.141154,0.342803 -0.141154,0.141154 -0.342802,0.141154 H 5.591773 q -0.201649,0 -0.342802,-0.141154 Q 5.107816,10.69306 5.107816,10.491411 V 7.587672 q 0,-0.2016485 0.141155,-0.3428025 0.141153,-0.141154 0.342802,-0.141154 h 0.1613189 v -0.967913 q 0,-0.927583 0.6654401,-1.5930234 0.6654409,-0.6654403 1.5930239,-0.6654403 0.9275831,0 1.5930231,0.6654403 0.66544,0.6654404 0.66544,1.5930234 v 0.967913 h 0.16132 q 0.201648,0 0.342802,0.141154 0.141154,0.141154 0.141154,0.3428025 z"
     inkscape:connector-curvature="0"
     style="opacity:0.22099998;fill:#0d52bf;fill-opacity:1;stroke:#3c8dbc;stroke-width:0.00504121;stroke-opacity:1" />
  <path
     style="opacity:1;vector-effect:none;fill:none;fill-opacity:1;stroke:url(#linearGradient5410);stroke-width:0.12239839;stroke-linecap:round;stroke-linejoin:round;stroke-miterlimit:4;stroke-dasharray:none;stroke-dashoffset:0;stroke-opacity:1"
     sodipodi:nodetypes="cssssssscscsssssssssssssc"
     inkscape:connector-curvature="0"
     id="path5402"
     d="m 13.390324,2.244323 -0.0041,6.521022 c -2.5e-4,0.48339 -0.09378,0.962567 -0.281338,1.437526 -0.187555,0.474959 -0.4199,0.896521 -0.697036,1.264686 -0.277138,0.368164 -0.607461,0.726492 -0.990973,1.074982 -0.383512,0.348493 -0.737629,0.637964 -1.062355,0.868418 -0.324724,0.230452 -0.6634461,0.448261 -1.0161641,0.653421 -0.352719,0.20516 -0.603261,0.344275 -0.751627,0.417346 -0.1483659,0.07307 -0.267339,0.129279 -0.356918,0.168625 -0.06718,0.03372 -0.139968,0.05059 -0.218349,0.05059 -0.07838,0 -0.151165,-0.01686 -0.21835,-0.05059 -0.08958,-0.03935 -0.208552,-0.09556 -0.3569179,-0.168625 C 7.28778,14.408653 7.0372379,14.269538 6.6845199,14.064378 6.3318009,13.859218 5.993079,13.641409 5.6683549,13.410957 5.343629,13.180503 4.9895109,12.891032 4.606,12.542539 4.2224949,12.194049 3.892171,11.835721 3.615035,11.467557 3.337899,11.099392 3.105552,10.67783 2.917996,10.202871 2.730439,9.727912 2.637275,9.248735 2.63666,8.765345 L 2.62836,2.2504795 c -1.88e-4,-0.146141 0.0228,-0.265085 0.129179,-0.371881 0.106376,-0.106796 0.214393,-0.136343 0.35996,-0.1362515 l 9.823032,0.00616 c 0.146221,9.15e-5 0.228722,0.034245 0.335098,0.14104 0.106375,0.106796 0.114773,0.2086385 0.11468,0.35478 z" />
  <path
     style="opacity:0.47099998;fill:#0d52bf;fill-opacity:1;stroke:#3c8dbc;stroke-width:0.00504121;stroke-opacity:1"
     inkscape:connector-curvature="0"
     d="m 6.721005,6.8537155 h 2.581101 v -0.967913 q 0,-0.5343685 -0.37809,-0.9124595 -0.3780921,-0.3780912 -0.9124601,-0.3780912 -0.5343689,0 -0.91246,0.3780912 Q 6.721005,5.351434 6.721005,5.8858025 Z m 4.19429,0.4839565 v 2.903739 q 0,0.201649 -0.141154,0.342803 -0.141154,0.141154 -0.342802,0.141154 H 5.591773 q -0.201649,0 -0.342802,-0.141154 Q 5.107816,10.44306 5.107816,10.241411 V 7.337672 q 0,-0.2016485 0.141155,-0.3428025 0.141153,-0.141154 0.342802,-0.141154 h 0.1613189 v -0.967913 q 0,-0.927583 0.6654401,-1.5930234 0.6654409,-0.6654403 1.5930239,-0.6654403 0.9275831,0 1.5930231,0.6654403 0.66544,0.6654404 0.66544,1.5930234 v 0.967913 h 0.16132 q 0.201648,0 0.342802,0.141154 0.141154,0.141154 0.141154,0.3428025 z"
     id="path7064" />
  <path
     id="path6309"
     d="m 6.721005,6.6037155 h 2.581101 v -0.967913 q 0,-0.5343685 -0.37809,-0.9124597 -0.3780921,-0.378091 -0.9124601,-0.378091 -0.5343689,0 -0.91246,0.378091 Q 6.721005,5.101434 6.721005,5.6358025 Z m 4.19429,0.4839565 V 9.99141 q 0,0.201649 -0.141154,0.342804 -0.141154,0.141154 -0.342802,0.141154 H 5.591773 q -0.201649,0 -0.342802,-0.141154 Q 5.107816,10.193059 5.107816,9.99141 V 7.087672 q 0,-0.2016485 0.141155,-0.3428025 0.141153,-0.141154 0.342802,-0.141154 h 0.1613189 v -0.967913 q 0,-0.9275832 0.6654401,-1.5930234 0.6654409,-0.6654403 1.5930239,-0.6654403 0.9275831,0 1.5930231,0.6654403 0.66544,0.6654402 0.66544,1.5930234 v 0.967913 h 0.16132 q 0.201648,0 0.342802,0.141154 0.141154,0.141154 0.141154,0.3428025 z"
     inkscape:connector-curvature="0"
     style="fill:#ffffff;fill-opacity:1;stroke-width:0.00504121" />
</svg>
