<?xml version="1.0" encoding="UTF-8" standalone="no"?>
<svg
   xmlns:dc="http://purl.org/dc/elements/1.1/"
   xmlns:cc="http://creativecommons.org/ns#"
   xmlns:rdf="http://www.w3.org/1999/02/22-rdf-syntax-ns#"
   xmlns:svg="http://www.w3.org/2000/svg"
   xmlns="http://www.w3.org/2000/svg"
   xmlns:xlink="http://www.w3.org/1999/xlink"
   xmlns:sodipodi="http://sodipodi.sourceforge.net/DTD/sodipodi-0.dtd"
   xmlns:inkscape="http://www.inkscape.org/namespaces/inkscape"
   width="48"
   height="48"
   viewBox="0 0 48 48"
   version="1.1"
   id="svg217"
   sodipodi:docname="shield-48.svg"
   inkscape:export-filename="/home/daniel/dev/icons/shield.svg.png"
   inkscape:export-xdpi="96"
   inkscape:export-ydpi="96"
   inkscape:version="0.92.3 (2405546, 2018-03-11)">
  <metadata
     id="metadata223">
    <rdf:RDF>
      <cc:Work
         rdf:about="">
        <dc:format>image/svg+xml</dc:format>
        <dc:type
           rdf:resource="http://purl.org/dc/dcmitype/StillImage" />
        <dc:title></dc:title>
      </cc:Work>
    </rdf:RDF>
  </metadata>
  <defs
     id="defs221">
    <linearGradient
       id="linearGradient7072"
       inkscape:collect="always">
      <stop
         id="stop7068"
         offset="0"
         style="stop-color:#3c8dbc;stop-opacity:1" />
      <stop
         id="stop7070"
         offset="1"
         style="stop-color:#3c75bc;stop-opacity:1" />
    </linearGradient>
    <linearGradient
       id="linearGradient5421"
       inkscape:collect="always">
      <stop
         id="stop5417"
         offset="0"
         style="stop-color:#ffffff;stop-opacity:1" />
      <stop
         style="stop-color:#ffffff;stop-opacity:0.23529412"
         offset="0.03773585"
         id="stop5441" />
      <stop
         id="stop5453"
         offset="0.96217406"
         style="stop-color:#ffffff;stop-opacity:0.15686275" />
      <stop
         id="stop5419"
         offset="1"
         style="stop-color:#ffffff;stop-opacity:0.39215687" />
    </linearGradient>
    <linearGradient
       inkscape:collect="always"
       id="linearGradient5317-0">
      <stop
         style="stop-color:#8cd5ff;stop-opacity:1"
         offset="0"
         id="stop5313" />
      <stop
         style="stop-color:#3689e6;stop-opacity:1"
         offset="1"
         id="stop5315" />
    </linearGradient>
    <linearGradient
       inkscape:collect="always"
       xlink:href="#linearGradient7072"
       id="linearGradient5319"
       x1="1536"
       y1="128.20189"
       x2="1536"
       y2="1661.1135"
       gradientUnits="userSpaceOnUse"
       gradientTransform="matrix(0.02578046,0,0,0.02578046,0.9377007,2.260839)" />
    <linearGradient
       inkscape:collect="always"
       xlink:href="#linearGradient5317-0"
       id="linearGradient5319-3"
       x1="1536"
       y1="128.20189"
       x2="1536"
       y2="1661.1135"
       gradientUnits="userSpaceOnUse"
       gradientTransform="matrix(0.06874791,0,0,0.06874791,-17.599465,-8.7997302)" />
    <linearGradient
       inkscape:collect="always"
       xlink:href="#linearGradient5421"
       id="linearGradient5410"
       x1="64.007195"
       y1="9.4390574"
       x2="64.007195"
       y2="119.00778"
       gradientUnits="userSpaceOnUse"
       gradientTransform="matrix(0.36647203,0,0,0.36791977,0.5756367,1.5285482)" />
    <radialGradient
       cx="4.993"
       cy="43.5"
       r="2.5"
       fx="4.993"
       fy="43.5"
       id="h"
       xlink:href="#b"
       gradientUnits="userSpaceOnUse"
       gradientTransform="matrix(2.00378,0,0,1.4,27.988,-17.4)" />
    <linearGradient
       id="b">
      <stop
         offset="0"
         stop-color="#181818"
         id="stop5614" />
      <stop
         offset="1"
         stop-color="#181818"
         stop-opacity="0"
         id="stop5616" />
    </linearGradient>
    <radialGradient
       cx="4.993"
       cy="43.5"
       r="2.5"
       fx="4.993"
       fy="43.5"
       id="i"
       xlink:href="#b"
       gradientUnits="userSpaceOnUse"
       gradientTransform="matrix(2.00378,0,0,1.4,-48.012,-104.4)" />
    <radialGradient
       gradientUnits="userSpaceOnUse"
       gradientTransform="matrix(0.58761161,0,0,0.0401775,5.268342,42.923003)"
       r="28"
       fy="59.5"
       fx="32"
       cy="59.5"
       cx="32"
       id="g"
       xlink:href="#f" />
    <linearGradient
       id="f">
      <stop
         offset="0"
         id="stop5588" />
      <stop
         offset="1"
         stop-opacity="0"
         id="stop5590" />
    </linearGradient>
  </defs>
  <sodipodi:namedview
     pagecolor="#ffffff"
     bordercolor="#666666"
     borderopacity="1"
     objecttolerance="10"
     gridtolerance="10"
     guidetolerance="10"
     inkscape:pageopacity="0"
     inkscape:pageshadow="2"
     inkscape:window-width="1720"
     inkscape:window-height="1377"
     id="namedview219"
     showgrid="true"
     inkscape:zoom="2"
     inkscape:cx="21.475875"
     inkscape:cy="21.242371"
     inkscape:window-x="0"
     inkscape:window-y="30"
     inkscape:window-maximized="0"
     inkscape:current-layer="svg217"
     showguides="true"
     inkscape:lockguides="true"
     inkscape:pagecheckerboard="false"
     borderlayer="false">
    <inkscape:grid
       type="xygrid"
       id="grid5325"
       empspacing="4" />
    <inkscape:grid
       type="xygrid"
       id="grid5327"
       color="#ffef3f"
       opacity="0.2745098"
       empspacing="2"
       empcolor="#ffef3f"
       empopacity="0.2745098"
       spacingx="0.5"
       spacingy="0.5"
       dotted="true" />
  </sodipodi:namedview>
  <ellipse
     style="opacity:0.1;fill:url(#g);stroke-width:0.46941918"
     ry="1.125"
     rx="16.453125"
     cy="45.313629"
     cx="24.071909"
     id="ellipse5630" />
  <g
     transform="matrix(0.375,0,0,0.375,12.030749,22.813627)"
     style="opacity:0.4"
     id="g5636">
    <path
       style="fill:url(#h)"
       inkscape:connector-curvature="0"
       d="m 38,40 h 5 v 7 h -5 z"
       transform="matrix(1.57895,0,0,0.71429,-28,28.429)"
       id="path5632" />
    <path
       style="fill:url(#i)"
       inkscape:connector-curvature="0"
       transform="matrix(-1.57895,0,0,-0.71429,-28,28.429)"
       d="m -38,-47 h 5 v 7 h -5 z"
       id="path5634" />
  </g>
  <path
     d="m 40.536494,7.210685 v 19.799399 c 0,1.478079 -0.287883,2.943272 -0.863647,4.39557 -0.575764,1.452298 -1.289018,2.741322 -2.139772,3.867069 -0.850763,1.125747 -1.86479,2.221419 -3.0421,3.28701 -1.177309,1.065591 -2.264383,1.950723 -3.26123,2.655389 -0.996842,0.704659 -2.036654,1.370662 -3.119434,1.997981 -1.082779,0.62733 -1.851896,1.052704 -2.307351,1.276136 -0.455455,0.223429 -0.82068,0.395299 -1.095671,0.515614 -0.206245,0.103114 -0.429674,0.154676 -0.670292,0.154676 -0.240617,0 -0.464048,-0.05156 -0.670292,-0.154676 -0.274991,-0.120315 -0.640216,-0.292185 -1.095671,-0.515614 -0.455455,-0.223432 -1.224572,-0.648806 -2.307352,-1.276136 -1.082779,-0.627319 -2.12259,-1.293322 -3.119433,-1.997981 -0.996847,-0.704666 -2.083922,-1.589798 -3.26123,-2.655389 C 12.405711,37.494142 11.391681,36.39847 10.540924,35.272723 9.69017,34.146976 8.97691,32.857952 8.401146,31.405654 7.825383,29.953356 7.5375,28.488163 7.5375,27.010084 V 7.210685 C 7.5375,6.763826 7.700778,6.37712 8.027328,6.050566 8.353881,5.724012 8.740588,5.560738 9.187451,5.560738 h 29.699096 c 0.446857,0 0.833564,0.163274 1.160123,0.489828 0.326549,0.326554 0.489824,0.71326 0.489824,1.160119 z"
     id="path215"
     inkscape:connector-curvature="0"
     sodipodi:nodetypes="sssssssscscsssssssssssss"
     style="opacity:1;vector-effect:none;fill:url(#linearGradient5319);fill-opacity:1;stroke:none;stroke-width:0.02578047;stroke-linecap:butt;stroke-linejoin:miter;stroke-miterlimit:4;stroke-dasharray:none;stroke-dashoffset:0;stroke-opacity:1" />
  <path
     style="opacity:1;vector-effect:none;fill:none;fill-opacity:1;stroke:#3c80bc;stroke-width:0.375;stroke-linecap:butt;stroke-linejoin:miter;stroke-miterlimit:4;stroke-dasharray:none;stroke-dashoffset:0;stroke-opacity:1"
     sodipodi:nodetypes="sssssssscscsssssssssssss"
     inkscape:connector-curvature="0"
     id="path5390"
     d="m 40.536494,7.210685 v 19.799399 c 0,1.478079 -0.287883,2.943272 -0.863647,4.39557 -0.575764,1.452298 -1.289018,2.741322 -2.139772,3.867069 -0.850763,1.125747 -1.86479,2.221419 -3.0421,3.28701 -1.177309,1.065591 -2.264383,1.950723 -3.26123,2.655389 -0.996842,0.704659 -2.036654,1.370662 -3.119434,1.997981 -1.082779,0.62733 -1.851896,1.052704 -2.307351,1.276136 -0.455455,0.223429 -0.82068,0.395299 -1.095671,0.515614 -0.206245,0.103114 -0.429674,0.154676 -0.670292,0.154676 -0.240617,0 -0.464048,-0.05156 -0.670292,-0.154676 -0.274991,-0.120315 -0.640216,-0.292185 -1.095671,-0.515614 -0.455455,-0.223432 -1.224572,-0.648806 -2.307352,-1.276136 -1.082779,-0.627319 -2.12259,-1.293322 -3.119433,-1.997981 -0.996847,-0.704666 -2.083922,-1.589798 -3.26123,-2.655389 C 12.405711,37.494142 11.391681,36.39847 10.540924,35.272723 9.69017,34.146976 8.97691,32.857952 8.401146,31.405654 7.825383,29.953356 7.5375,28.488163 7.5375,27.010084 V 7.210685 C 7.5375,6.763826 7.700778,6.37712 8.027328,6.050566 8.353881,5.724012 8.740588,5.560738 9.187451,5.560738 h 29.699096 c 0.446857,0 0.833564,0.163274 1.160123,0.489828 0.326549,0.326554 0.489824,0.71326 0.489824,1.160119 z" />
  <path
     id="path7066"
     d="m 20.163014,22 h 7.743304 v -2.903739 q 0,-1.603107 -1.13427,-2.73738 -1.134275,-1.134273 -2.737381,-1.134273 -1.603106,0 -2.73738,1.134273 -1.134272,1.134273 -1.134272,2.73738 z m 12.58287,1.451869 v 8.711216 q 0,0.604946 -0.423463,1.028409 -0.423461,0.423461 -1.028404,0.423461 H 16.775318 q -0.604946,0 -1.028406,-0.423461 -0.423464,-0.423463 -0.423464,-1.028409 v -8.711216 q 0,-0.604945 0.423464,-1.028407 Q 16.170372,22 16.775318,22 h 0.483957 v -2.903739 q 0,-2.78275 1.996322,-4.779071 1.996322,-1.996321 4.77907,-1.996321 2.782749,0 4.77907,1.996321 1.99632,1.996321 1.99632,4.779071 V 22 h 0.483958 q 0.604945,0 1.028406,0.423462 0.423463,0.423462 0.423463,1.028407 z"
     inkscape:connector-curvature="0"
     style="opacity:0.22099998;fill:#0d52bf;fill-opacity:1;stroke:#3c8dbc;stroke-width:0.01512364;stroke-opacity:1" />
  <path
     style="opacity:1;vector-effect:none;fill:none;fill-opacity:1;stroke:url(#linearGradient5410);stroke-width:0.36719519;stroke-linecap:round;stroke-linejoin:round;stroke-miterlimit:4;stroke-dasharray:none;stroke-dashoffset:0;stroke-opacity:1"
     sodipodi:nodetypes="cssssssscscsssssssssssssc"
     inkscape:connector-curvature="0"
     id="path5402"
     d="m 40.17097,7.421822 -0.01245,19.563065 c -7.49e-4,1.450171 -0.28134,2.887701 -0.844013,4.312578 -0.562665,1.424878 -1.2597,2.689564 -2.091107,3.794057 -0.831415,1.104492 -1.822381,2.179477 -2.972918,3.224948 -1.150537,1.045477 -2.212888,1.913891 -3.187064,2.605252 -0.974175,0.691357 -1.990339,1.344784 -3.048494,1.960264 -1.058156,0.61548 -1.809782,1.032825 -2.25488,1.252038 -0.445098,0.21921 -0.802017,0.387837 -1.070754,0.505875 -0.201554,0.101172 -0.419903,0.151763 -0.655048,0.151763 -0.235146,0 -0.453495,-0.05059 -0.65505,-0.151763 -0.268738,-0.118038 -0.625658,-0.286665 -1.070755,-0.505875 -0.445098,-0.219213 -1.196724,-0.636558 -2.254879,-1.252038 -1.058156,-0.61548 -2.074321,-1.268907 -3.048495,-1.960264 C 16.030886,40.230361 14.968533,39.361947 13.817999,38.31647 12.667483,37.270999 11.676512,36.196014 10.845103,35.091522 10.013697,33.987029 9.316657,32.722343 8.753987,31.297465 8.191317,29.872588 7.911825,28.435057 7.909981,26.984887 L 7.885121,7.44029 C 7.884559,7.001867 7.953531,6.645035 8.272659,6.324647 8.591787,6.004259 8.915838,5.915619 9.352538,5.915893 l 29.469095,0.01847 c 0.438663,2.75e-4 0.686167,0.102732 1.005297,0.42312 0.319125,0.320388 0.344316,0.625917 0.34404,1.064339 z" />
  <path
     style="opacity:0.47099998;fill:#0d52bf;fill-opacity:1;stroke:#3c8dbc;stroke-width:0.01512364;stroke-opacity:1"
     inkscape:connector-curvature="0"
     d="m 20.163014,21.25 h 7.743304 v -2.903739 q 0,-1.603107 -1.13427,-2.73738 -1.134275,-1.134273 -2.737381,-1.134273 -1.603106,0 -2.73738,1.134273 -1.134272,1.134273 -1.134272,2.73738 z m 12.58287,1.451869 v 8.711216 q 0,0.604946 -0.423463,1.028409 -0.423461,0.423461 -1.028404,0.423461 H 16.775318 q -0.604946,0 -1.028406,-0.423461 -0.423464,-0.423463 -0.423464,-1.028409 v -8.711216 q 0,-0.604945 0.423464,-1.028407 Q 16.170372,21.25 16.775318,21.25 h 0.483957 v -2.903739 q 0,-2.78275 1.996322,-4.779071 1.996322,-1.996321 4.77907,-1.996321 2.782749,0 4.77907,1.996321 1.99632,1.996321 1.99632,4.779071 V 21.25 h 0.483958 q 0.604945,0 1.028406,0.423462 0.423463,0.423462 0.423463,1.028407 z"
     id="path7064" />
  <path
     id="path6309"
     d="m 20.163014,20.5 h 7.743304 v -2.903739 q 0,-1.603107 -1.13427,-2.73738 -1.134275,-1.134273 -2.737381,-1.134273 -1.603106,0 -2.73738,1.134273 -1.134272,1.134273 -1.134272,2.73738 z m 12.58287,1.451869 v 8.711216 q 0,0.604945 -0.423463,1.028409 -0.423461,0.423461 -1.028404,0.423461 H 16.775318 q -0.604946,0 -1.028406,-0.423461 -0.423465,-0.423464 -0.423465,-1.028409 v -8.711216 q 0,-0.604945 0.423464,-1.028407 Q 16.170372,20.5 16.775318,20.5 h 0.483957 v -2.903739 q 0,-2.78275 1.996322,-4.779071 1.996322,-1.996321 4.77907,-1.996321 2.782749,0 4.77907,1.996321 1.99632,1.996321 1.99632,4.779071 V 20.5 h 0.483958 q 0.604945,0 1.028406,0.423462 0.423463,0.423462 0.423463,1.028407 z"
     inkscape:connector-curvature="0"
     style="fill:#ffffff;fill-opacity:1;stroke-width:0.01512364" />
</svg>
